<?xml version="1.0" encoding="UTF-8"?>
<svg id="Capa_1" data-name="Capa 1" xmlns="http://www.w3.org/2000/svg" viewBox="0 0 297.81 97.81">
  <defs>
    <style>
      .cls-1 {
        fill: #fff;
      }

      .cls-2 {
        fill: #e4003f;
        font-family: ArialMT, Arial;
        font-size: 86.22px;
      }
    </style>
  </defs>
  <g>
    <path class="cls-1" d="m23.11,72.78V26.7h13.76c5.21,0,8.61.23,10.19.69,2.43.69,4.47,2.2,6.11,4.51,1.64,2.32,2.46,5.31,2.46,8.97,0,2.83-.47,5.21-1.42,7.13-.95,1.93-2.15,3.44-3.61,4.54-1.46,1.1-2.94,1.83-4.45,2.18-2.05.44-5.01.66-8.89.66h-5.59v17.38h-8.57Zm8.57-38.28v13.08h4.69c3.38,0,5.64-.24,6.78-.72,1.14-.48,2.03-1.24,2.68-2.26s.97-2.22.97-3.58c0-1.68-.45-3.06-1.36-4.15-.91-1.09-2.06-1.77-3.45-2.04-1.02-.21-3.08-.31-6.17-.31h-4.14Z"/>
    <path class="cls-1" d="m92.96,30.06l4.58-5.56,4.03,3.83-4.84,5.91c1.29,1.89,2.3,4.21,3.01,6.96.71,2.75,1.07,5.68,1.07,8.79,0,7.31-1.86,13.07-5.59,17.27-3.73,4.2-8.65,6.3-14.77,6.3-5.31,0-9.56-1.31-12.74-3.93l-4.69,5.72-4.11-3.9,4.95-6.04c-2.82-4.09-4.23-9.41-4.23-15.97,0-7.27,1.86-13.01,5.59-17.23,3.73-4.21,8.7-6.32,14.91-6.32,5.15,0,9.43,1.38,12.83,4.15Zm-5.33,6.48c-1.95-1.8-4.42-2.7-7.41-2.7-3.51,0-6.35,1.32-8.51,3.94-2.16,2.63-3.24,6.6-3.24,11.9,0,3.33.44,6.18,1.33,8.55l17.84-21.69Zm3.16,4.93l-17.81,21.72c1.99,1.89,4.38,2.83,7.18,2.83,3.44,0,6.26-1.35,8.47-4.05,2.21-2.7,3.32-6.74,3.32-12.1,0-3.39-.39-6.19-1.16-8.39Z"/>
    <path class="cls-1" d="m107.12,72.78V26.7h13.76c5.21,0,8.61.23,10.19.69,2.43.69,4.47,2.2,6.11,4.51,1.64,2.32,2.46,5.31,2.46,8.97,0,2.83-.47,5.21-1.42,7.13-.95,1.93-2.15,3.44-3.61,4.54-1.46,1.1-2.94,1.83-4.45,2.18-2.05.44-5.01.66-8.89.66h-5.59v17.38h-8.57Zm8.57-38.28v13.08h4.69c3.38,0,5.64-.24,6.78-.72,1.14-.48,2.03-1.24,2.68-2.26s.97-2.22.97-3.58c0-1.68-.45-3.06-1.36-4.15-.91-1.09-2.06-1.77-3.45-2.04-1.02-.21-3.08-.31-6.17-.31h-4.14Z"/>
    <path class="cls-1" d="m199.05,72.78h-9.33l-3.71-10.47h-16.97l-3.5,10.47h-9.09l16.54-46.08h9.06l17,46.08Zm-15.78-18.23l-5.85-17.1-5.73,17.1h11.58Z"/>
    <path class="cls-1" d="m219.65,25.76c3.8,0,7.45,1.03,10.95,3.1,3.49,2.06,6.24,5.02,8.24,8.88s3,7.89,3,12.1-.98,8.19-2.94,11.99c-1.96,3.8-4.69,6.77-8.2,8.9-3.5,2.13-7.19,3.19-11.05,3.19s-7.54-1.06-11.05-3.19c-3.5-2.13-6.24-5.09-8.2-8.9-1.96-3.8-2.94-7.8-2.94-11.99s1-8.25,3-12.1,4.74-6.82,8.24-8.88c3.49-2.06,7.14-3.1,10.95-3.1Zm.03,4.71c-3.05,0-5.98.83-8.77,2.48s-5,4.03-6.62,7.13c-1.61,3.1-2.42,6.35-2.42,9.74s.79,6.59,2.36,9.65,3.77,5.45,6.59,7.17c2.82,1.72,5.77,2.58,8.86,2.58s6.07-.86,8.88-2.58c2.81-1.72,5-4.11,6.59-7.17s2.37-6.28,2.37-9.65-.81-6.64-2.42-9.74c-1.61-3.1-3.82-5.48-6.63-7.13-2.81-1.66-5.74-2.48-8.79-2.48Z"/>
    <path class="cls-1" d="m209.63,62.72v-25.55h4.78c4.48,0,6.99.02,7.53.06,1.58.15,2.81.49,3.69,1.02.88.53,1.61,1.35,2.2,2.45.59,1.1.88,2.32.88,3.66,0,1.84-.56,3.42-1.67,4.73-1.11,1.31-2.67,2.12-4.68,2.44.71.29,1.26.61,1.65.96.39.35.92,1,1.59,1.96.17.25.75,1.29,1.74,3.11l2.78,5.15h-5.91l-1.97-4.15c-1.33-2.79-2.43-4.54-3.3-5.27-.87-.72-1.97-1.08-3.3-1.08h-1.25v10.5h-4.78Zm4.78-14.52h1.94c2.76,0,4.47-.12,5.14-.35s1.19-.63,1.58-1.21c.39-.58.58-1.23.58-1.96s-.19-1.35-.57-1.9c-.38-.55-.91-.95-1.61-1.19-.7-.24-2.4-.36-5.13-.36h-1.94v6.98Z"/>
    <path class="cls-1" d="m254.3,72.78v-38.28h-12.6v-7.79h33.74v7.79h-12.57v38.28h-8.57Z"/>
  </g>
  <text class="cls-2" transform="translate(133.11 80.44) scale(.99) skewX(-7.97)"><tspan x="0" y="0">/</tspan></text>
</svg>