<?xml version="1.0" encoding="UTF-8"?>
<svg id="Capa_1" data-name="Capa 1" xmlns="http://www.w3.org/2000/svg" viewBox="0 0 357.66 338.69">
  <defs>
    <style>
      .cls-1 {
        stroke-width: 1.5px;
      }

      .cls-1, .cls-2 {
        stroke: #e4003f;
      }

      .cls-1, .cls-2, .cls-3, .cls-4 {
        stroke-miterlimit: 10;
      }

      .cls-1, .cls-2, .cls-4 {
        fill: none;
      }

      .cls-2 {
        stroke-width: 1.58px;
      }

      .cls-5 {
        font-family: ArialMT, Arial;
        font-size: 86.22px;
      }

      .cls-5, .cls-6 {
        fill: #e4003f;
      }

      .cls-3 {
        fill: #fff;
        stroke-width: 4.06px;
      }

      .cls-3, .cls-4 {
        stroke: #000;
      }

      .cls-7 {
        fill: #1d1d1c;
      }

      .cls-8 {
        fill: #1d1d1b;
      }

      .cls-4 {
        stroke-width: 2.03px;
      }
    </style>
  </defs>
  <g>
    <g>
      <path class="cls-8" d="m53.76,268.89v-46.08h13.76c5.21,0,8.61.23,10.19.69,2.43.69,4.47,2.2,6.11,4.51,1.64,2.32,2.46,5.31,2.46,8.97,0,2.83-.47,5.21-1.42,7.13-.95,1.93-2.15,3.44-3.61,4.54-1.46,1.1-2.94,1.83-4.45,2.18-2.05.44-5.01.66-8.89.66h-5.59v17.38h-8.57Zm8.57-38.28v13.08h4.69c3.38,0,5.64-.24,6.78-.72,1.14-.48,2.03-1.24,2.68-2.26s.97-2.22.97-3.58c0-1.68-.45-3.06-1.36-4.15-.91-1.09-2.06-1.77-3.45-2.04-1.02-.21-3.08-.31-6.17-.31h-4.14Z"/>
      <path class="cls-8" d="m123.62,226.17l4.58-5.56,4.03,3.83-4.84,5.91c1.29,1.89,2.3,4.21,3.01,6.96.71,2.75,1.07,5.68,1.07,8.79,0,7.31-1.86,13.07-5.59,17.27-3.73,4.2-8.65,6.3-14.77,6.3-5.31,0-9.56-1.31-12.74-3.93l-4.69,5.72-4.11-3.9,4.95-6.04c-2.82-4.09-4.23-9.41-4.23-15.97,0-7.27,1.86-13.01,5.59-17.23,3.73-4.21,8.7-6.32,14.91-6.32,5.15,0,9.43,1.38,12.83,4.15Zm-5.33,6.48c-1.95-1.8-4.42-2.7-7.41-2.7-3.51,0-6.35,1.32-8.51,3.94-2.16,2.63-3.24,6.6-3.24,11.9,0,3.33.44,6.18,1.33,8.55l17.84-21.69Zm3.16,4.93l-17.81,21.72c1.99,1.89,4.38,2.83,7.18,2.83,3.44,0,6.26-1.35,8.47-4.05,2.21-2.7,3.32-6.74,3.32-12.1,0-3.39-.39-6.19-1.16-8.39Z"/>
      <path class="cls-8" d="m137.78,268.89v-46.08h13.76c5.21,0,8.61.23,10.19.69,2.43.69,4.47,2.2,6.11,4.51,1.64,2.32,2.46,5.31,2.46,8.97,0,2.83-.47,5.21-1.42,7.13-.95,1.93-2.15,3.44-3.61,4.54-1.46,1.1-2.94,1.83-4.45,2.18-2.05.44-5.01.66-8.89.66h-5.59v17.38h-8.57Zm8.57-38.28v13.08h4.69c3.38,0,5.64-.24,6.78-.72,1.14-.48,2.03-1.24,2.68-2.26s.97-2.22.97-3.58c0-1.68-.45-3.06-1.36-4.15-.91-1.09-2.06-1.77-3.45-2.04-1.02-.21-3.08-.31-6.17-.31h-4.14Z"/>
      <path class="cls-8" d="m229.71,268.89h-9.33l-3.71-10.47h-16.97l-3.5,10.47h-9.09l16.54-46.08h9.06l17,46.08Zm-15.78-18.23l-5.85-17.1-5.73,17.1h11.58Z"/>
      <path class="cls-8" d="m250.31,221.86c3.8,0,7.45,1.03,10.95,3.1,3.49,2.06,6.24,5.02,8.24,8.88s3,7.89,3,12.1-.98,8.19-2.94,11.99c-1.96,3.8-4.69,6.77-8.2,8.9-3.5,2.13-7.19,3.19-11.05,3.19s-7.54-1.06-11.05-3.19c-3.5-2.13-6.24-5.09-8.2-8.9-1.96-3.8-2.94-7.8-2.94-11.99s1-8.25,3-12.1,4.74-6.82,8.24-8.88c3.49-2.06,7.14-3.1,10.95-3.1Zm.03,4.71c-3.05,0-5.98.83-8.77,2.48s-5,4.03-6.62,7.13c-1.61,3.1-2.42,6.35-2.42,9.74s.79,6.59,2.36,9.65,3.77,5.45,6.59,7.17c2.82,1.72,5.77,2.58,8.86,2.58s6.07-.86,8.88-2.58c2.81-1.72,5-4.11,6.59-7.17s2.37-6.28,2.37-9.65-.81-6.64-2.42-9.74c-1.61-3.1-3.82-5.48-6.63-7.13-2.81-1.66-5.74-2.48-8.79-2.48Z"/>
      <path class="cls-8" d="m240.29,258.83v-25.55h4.78c4.48,0,6.99.02,7.53.06,1.58.15,2.81.49,3.69,1.02.88.53,1.61,1.35,2.2,2.45.59,1.1.88,2.32.88,3.66,0,1.84-.56,3.42-1.67,4.73-1.11,1.31-2.67,2.12-4.68,2.44.71.29,1.26.61,1.65.96.39.35.92,1,1.59,1.96.17.25.75,1.29,1.74,3.11l2.78,5.15h-5.91l-1.97-4.15c-1.33-2.79-2.43-4.54-3.3-5.27-.87-.72-1.97-1.08-3.3-1.08h-1.25v10.5h-4.78Zm4.78-14.52h1.94c2.76,0,4.47-.12,5.14-.35s1.19-.63,1.58-1.21c.39-.58.58-1.23.58-1.96s-.19-1.35-.57-1.9c-.38-.55-.91-.95-1.61-1.19-.7-.24-2.4-.36-5.13-.36h-1.94v6.98Z"/>
      <path class="cls-8" d="m284.95,268.89v-38.28h-12.6v-7.79h33.74v7.79h-12.57v38.28h-8.57Z"/>
    </g>
    <text class="cls-5" transform="translate(163.77 276.55) scale(.99) skewX(-7.97)"><tspan x="0" y="0">/</tspan></text>
  </g>
  <g>
    <path class="cls-6" d="m22.22,314.4v-22.14h3.11v22.14h-3.11Zm1.51-19.18v-2.95h12.71v2.95h-12.71Zm0,9.67v-2.95h11.04v2.95h-11.04Zm0,9.52v-2.95h12.71v2.95h-12.71Z"/>
    <path class="cls-6" d="m47.51,314.63c-1.08,0-2.09-.1-3.04-.3-.95-.2-1.84-.51-2.66-.91s-1.6-.91-2.32-1.52l1.93-2.38c.84.73,1.77,1.28,2.79,1.64s2.12.55,3.3.55c1.6,0,2.85-.3,3.73-.9.88-.6,1.32-1.44,1.32-2.51h0c0-.86-.22-1.5-.67-1.95-.45-.45-1.03-.78-1.76-1-.73-.22-1.52-.4-2.38-.54-.83-.14-1.67-.31-2.52-.5-.85-.19-1.63-.5-2.34-.91-.71-.41-1.28-1-1.71-1.77-.43-.77-.65-1.8-.65-3.09v-.02c0-2.06.68-3.66,2.05-4.79,1.37-1.13,3.3-1.7,5.8-1.7,1.19,0,2.35.19,3.49.57,1.14.38,2.24.96,3.32,1.74l-1.77,2.47c-.84-.63-1.68-1.1-2.52-1.4s-1.68-.46-2.52-.46c-1.51,0-2.69.3-3.52.91s-1.26,1.46-1.26,2.57v.02c0,.83.24,1.47.73,1.9s1.12.76,1.91.97,1.63.4,2.53.59c.81.16,1.62.36,2.44.59.81.23,1.55.56,2.22.99.67.43,1.2,1.02,1.6,1.77.4.75.6,1.73.6,2.94v.03c0,2.04-.71,3.62-2.13,4.73-1.42,1.12-3.42,1.67-6,1.67Z"/>
    <path class="cls-6" d="m57.01,295.21v-2.95h15.62v2.95h-15.62Zm6.26,19.18v-20.33h3.11v20.33h-3.11Z"/>
    <path class="cls-6" d="m82.53,314.63c-2.47,0-4.38-.72-5.73-2.15-1.36-1.44-2.03-3.46-2.03-6.08v-14.13h3.11v14.24c0,1.61.41,2.86,1.22,3.75.81.88,1.96,1.33,3.44,1.33s2.65-.44,3.46-1.33c.82-.88,1.23-2.13,1.23-3.75v-14.24h3.11v14.13c0,2.62-.68,4.65-2.04,6.08-1.36,1.44-3.28,2.15-5.75,2.15Z"/>
    <path class="cls-6" d="m95.19,314.4v-22.14h3.11v22.14h-3.11Zm2.1,0v-2.95h5.01c1.63,0,2.9-.42,3.8-1.27s1.35-2.04,1.35-3.59v-6.52c0-1.54-.45-2.74-1.35-3.59s-2.16-1.27-3.8-1.27h-5.01v-2.95h4.92c2.68,0,4.75.69,6.22,2.08,1.47,1.39,2.2,3.34,2.2,5.85v6.27c0,1.67-.33,3.1-.99,4.29-.66,1.18-1.62,2.09-2.88,2.71-1.26.62-2.78.94-4.57.94h-4.9Z"/>
    <path class="cls-6" d="m118.46,292.26v22.14h-3.11v-22.14h3.11Z"/>
    <path class="cls-6" d="m131.26,314.63c-1.56,0-2.93-.34-4.09-1.01-1.17-.67-2.07-1.63-2.72-2.85-.64-1.23-.97-2.66-.97-4.29v-6.27c0-1.64.32-3.08.97-4.3.64-1.22,1.55-2.17,2.72-2.85,1.17-.68,2.53-1.01,4.09-1.01s2.93.34,4.1,1.01,2.07,1.62,2.72,2.85c.64,1.22.97,2.66.97,4.3v6.27c0,1.63-.32,3.07-.97,4.29-.64,1.23-1.55,2.18-2.72,2.85-1.17.68-2.53,1.01-4.1,1.01Zm0-3.06c1.39,0,2.51-.46,3.34-1.37.84-.91,1.26-2.12,1.26-3.62v-6.49c0-1.51-.42-2.72-1.26-3.63s-1.95-1.36-3.34-1.36-2.49.45-3.33,1.36c-.84.91-1.26,2.12-1.26,3.63v6.49c0,1.5.42,2.71,1.26,3.62.84.91,1.95,1.37,3.33,1.37Z"/>
    <path class="cls-6" d="m152.44,314.4v-22.14h3.11v22.14h-3.11Zm2.1,0v-2.95h5.01c1.63,0,2.9-.42,3.8-1.27s1.35-2.04,1.35-3.59v-6.52c0-1.54-.45-2.74-1.35-3.59s-2.16-1.27-3.8-1.27h-5.01v-2.95h4.92c2.68,0,4.75.69,6.22,2.08,1.47,1.39,2.2,3.34,2.2,5.85v6.27c0,1.67-.33,3.1-.99,4.29-.66,1.18-1.62,2.09-2.88,2.71-1.26.62-2.78.94-4.57.94h-4.9Z"/>
    <path class="cls-6" d="m172.6,314.4v-22.14h3.11v22.14h-3.11Zm1.51-19.18v-2.95h12.71v2.95h-12.71Zm0,9.67v-2.95h11.04v2.95h-11.04Zm0,9.52v-2.95h12.71v2.95h-12.71Z"/>
    <path class="cls-6" d="m196.56,295.21v-2.95h15.62v2.95h-15.62Zm6.26,19.18v-20.33h3.11v20.33h-3.11Z"/>
    <path class="cls-6" d="m211.72,314.4l8.16-22.14h2.65l8.16,22.14h-3.35l-6.14-17.86-6.14,17.86h-3.35Zm3.76-4.86v-2.95h11.65v2.95h-11.65Z"/>
    <path class="cls-6" d="m230.39,295.21v-2.95h15.62v2.95h-15.62Zm6.26,19.18v-20.33h3.11v20.33h-3.11Z"/>
    <path class="cls-6" d="m255.91,314.63c-2.47,0-4.38-.72-5.73-2.15-1.36-1.44-2.03-3.46-2.03-6.08v-14.13h3.11v14.24c0,1.61.41,2.86,1.22,3.75.81.88,1.96,1.33,3.44,1.33s2.65-.44,3.46-1.33c.82-.88,1.23-2.13,1.23-3.75v-14.24h3.11v14.13c0,2.62-.68,4.65-2.04,6.08-1.36,1.44-3.28,2.15-5.75,2.15Z"/>
    <path class="cls-6" d="m265.83,314.4l8.16-22.14h2.65l8.16,22.14h-3.35l-6.14-17.86-6.14,17.86h-3.35Zm3.76-4.86v-2.95h11.65v2.95h-11.65Z"/>
    <path class="cls-6" d="m291.82,314.63c-1.17,0-2.25-.24-3.24-.72-.99-.48-1.79-1.15-2.41-2.01l2.54-1.83c.28.5.7.88,1.23,1.16.54.27,1.16.41,1.87.41,1.21,0,2.14-.38,2.81-1.13.66-.75,1-1.81,1-3.17v-15.09h3.11v15.1c0,2.3-.6,4.09-1.8,5.36-1.2,1.27-2.91,1.9-5.11,1.9Z"/>
    <path class="cls-6" d="m304.22,314.4v-22.14h3.11v22.14h-3.11Zm1.51-19.18v-2.95h12.71v2.95h-12.71Zm0,9.67v-2.95h11.04v2.95h-11.04Zm0,9.52v-2.95h12.71v2.95h-12.71Z"/>
    <path class="cls-6" d="m329.5,314.63c-1.08,0-2.09-.1-3.04-.3-.95-.2-1.84-.51-2.66-.91s-1.6-.91-2.32-1.52l1.93-2.38c.84.73,1.77,1.28,2.79,1.64s2.12.55,3.3.55c1.6,0,2.85-.3,3.73-.9.88-.6,1.32-1.44,1.32-2.51h0c0-.86-.22-1.5-.67-1.95-.45-.45-1.03-.78-1.76-1-.73-.22-1.52-.4-2.38-.54-.83-.14-1.67-.31-2.52-.5-.85-.19-1.63-.5-2.34-.91-.71-.41-1.28-1-1.71-1.77-.43-.77-.65-1.8-.65-3.09v-.02c0-2.06.68-3.66,2.05-4.79,1.37-1.13,3.3-1.7,5.8-1.7,1.19,0,2.35.19,3.49.57,1.14.38,2.24.96,3.32,1.74l-1.77,2.47c-.84-.63-1.68-1.1-2.52-1.4s-1.68-.46-2.52-.46c-1.51,0-2.69.3-3.52.91s-1.26,1.46-1.26,2.57v.02c0,.83.24,1.47.73,1.9s1.12.76,1.91.97,1.63.4,2.53.59c.81.16,1.62.36,2.44.59.81.23,1.55.56,2.22.99.67.43,1.2,1.02,1.6,1.77.4.75.6,1.73.6,2.94v.03c0,2.04-.71,3.62-2.13,4.73-1.42,1.12-3.42,1.67-6,1.67Z"/>
  </g>
  <g>
    <g>
      <rect class="cls-3" x="87.8" y="11.49" width="184.25" height="184.25" rx="10.66" ry="10.66"/>
      <line class="cls-4" x1="152.6" y1="17.7" x2="152.6" y2="189.27"/>
      <line class="cls-4" x1="210.58" y1="17.7" x2="210.58" y2="189.27"/>
      <line class="cls-4" x1="266.03" y1="74.67" x2="94.47" y2="74.67"/>
      <line class="cls-4" x1="266.03" y1="132.64" x2="94.47" y2="132.64"/>
      <path class="cls-7" d="m182.32,82.83c3.56,0,6.98.89,10.25,2.67,3.27,1.78,5.84,4.34,7.72,7.66,1.87,3.33,2.81,6.81,2.81,10.44s-.92,7.07-2.75,10.35-4.39,5.84-7.68,7.68-6.73,2.75-10.35,2.75-7.07-.92-10.35-2.75c-3.28-1.83-5.84-4.39-7.68-7.68s-2.75-6.73-2.75-10.35.94-7.12,2.81-10.44c1.87-3.33,4.44-5.88,7.72-7.66,3.27-1.78,6.69-2.67,10.25-2.67Zm.03,4.07c-2.86,0-5.6.71-8.22,2.14-2.62,1.43-4.69,3.48-6.2,6.16s-2.26,5.48-2.26,8.41.74,5.69,2.21,8.33c1.47,2.64,3.53,4.7,6.17,6.18,2.64,1.48,5.41,2.22,8.3,2.22s5.68-.74,8.31-2.22c2.63-1.48,4.69-3.54,6.17-6.18,1.48-2.64,2.22-5.42,2.22-8.33s-.75-5.73-2.26-8.41c-1.51-2.68-3.58-4.73-6.21-6.16-2.63-1.43-5.38-2.14-8.23-2.14Zm-9.41,27.83v-22.05h4.47c4.2,0,6.55.02,7.05.05,1.48.13,2.64.42,3.46.88.82.46,1.51,1.17,2.06,2.12s.83,2,.83,3.16c0,1.59-.52,2.95-1.56,4.08-1.04,1.13-2.5,1.83-4.38,2.1.67.25,1.18.53,1.55.83.36.3.86.86,1.49,1.7.16.22.71,1.11,1.63,2.69l2.6,4.45h-5.53l-1.84-3.58c-1.25-2.4-2.28-3.92-3.09-4.54s-1.84-.94-3.09-.94h-1.17v9.06h-4.47Zm4.47-12.53h1.82c2.59,0,4.19-.1,4.81-.3.62-.2,1.12-.55,1.48-1.04.36-.5.54-1.06.54-1.7s-.18-1.16-.53-1.64c-.35-.48-.85-.82-1.5-1.03-.65-.21-2.25-.31-4.8-.31h-1.82v6.02Z"/>
      <path class="cls-7" d="m177.87,184.06v-33.04h-11.8v-6.73h31.6v6.73h-11.77v33.04h-8.03Z"/>
      <path class="cls-7" d="m117.99,184.06v-33.04h-11.8v-6.73h31.6v6.73h-11.77v33.04h-8.03Z"/>
      <path class="cls-7" d="m236.33,123.41v-33.04h-11.8v-6.73h31.6v6.73h-11.77v33.04h-8.03Z"/>
      <path class="cls-7" d="m107.48,67.68V27.91h12.88c4.88,0,8.06.2,9.55.6,2.28.6,4.19,1.89,5.72,3.89s2.31,4.58,2.31,7.74c0,2.44-.44,4.49-1.33,6.16-.89,1.66-2.01,2.97-3.38,3.92-1.37.95-2.75,1.58-4.16,1.89-1.92.38-4.69.57-8.33.57h-5.24v15h-8.03Zm8.03-33.04v11.28h4.39c3.17,0,5.28-.21,6.35-.62,1.07-.42,1.9-1.07,2.51-1.95.61-.89.91-1.92.91-3.09,0-1.45-.43-2.64-1.28-3.58-.85-.94-1.93-1.53-3.23-1.76-.96-.18-2.88-.27-5.78-.27h-3.88Z"/>
      <path class="cls-7" d="m227.38,67.68V27.91h12.88c4.88,0,8.06.2,9.55.6,2.28.6,4.19,1.89,5.72,3.89s2.31,4.58,2.31,7.74c0,2.44-.44,4.49-1.33,6.16-.89,1.66-2.01,2.97-3.38,3.92-1.37.95-2.75,1.58-4.16,1.89-1.92.38-4.69.57-8.33.57h-5.24v15h-8.03Zm8.03-33.04v11.28h4.39c3.17,0,5.28-.21,6.35-.62,1.07-.42,1.9-1.07,2.51-1.95.61-.89.91-1.92.91-3.09,0-1.45-.43-2.64-1.28-3.58-.85-.94-1.93-1.53-3.23-1.76-.96-.18-2.88-.27-5.78-.27h-3.88Z"/>
    </g>
    <g>
      <path class="cls-6" d="m114.61,123.93c-.09-.31-.05-.6-.07-.88-.01-.16-.07-.32-.1-.48-.03-.15-.1-.28-.12-.43,0-.08-.07-.14-.1-.22-.1-.22-.19-.45-.2-.7,0-.06-.03-.12-.04-.18,0-.06,0-.12,0-.17-.01-.28.09-.52.19-.77.06-.16.15-.3.26-.44.02-.02.02-.05.03-.07.04-.08.07-.18.13-.25.12-.17.21-.36.32-.54.05-.09.11-.17.16-.26.17-.31.25-.66.39-.99,0-.01,0-.03,0-.04.01-.29.03-.58.04-.87,0-.1-.03-.21-.04-.31-.02-.1.04-.21-.04-.31-.02-.02,0-.07,0-.11,0-.1-.01-.19-.03-.29-.04-.17.02-.34.11-.49.04-.06.08-.12.13-.2.09-.03.17-.14.31-.15.02,0,.04-.03.05-.03.12.03.23-.05.35-.05.12,0,.23-.01.35,0,.1.02.2.04.29.08.35.14.63.35.9.61.06.06.14.1.2.16.15.14.28.31.4.49.02.03.05.05.08.08.1.1.21.21.27.35.02.04.07.07.1.11.04.05.09.1.11.15.05.15.13.29.23.4.01.02.03.03.04.05,0,.15.13.24.2.38,0-.05.02-.08.01-.1-.03-.11-.06-.22-.08-.33-.02-.1-.03-.2-.04-.31-.01-.1-.08-.17-.1-.26-.05-.19-.12-.38-.2-.57-.03-.07-.06-.15-.09-.22-.08-.17-.15-.34-.22-.52-.07-.18-.16-.34-.23-.51-.06-.15-.12-.31-.2-.46-.17-.32-.28-.67-.39-1.01-.04-.12-.13-.22-.14-.36,0-.07-.04-.14-.07-.21-.03-.08-.03-.17-.07-.23-.05-.07.02-.17-.07-.21.03-.23-.13-.43-.09-.66.01-.06-.03-.13-.04-.2,0-.06,0-.13,0-.2,0-.05.02-.09.03-.15-.06-.11-.05-.25-.02-.37.01-.05.02-.09.02-.14.01-.1-.02-.19.04-.29.04-.07,0-.17.04-.26.05-.12.03-.26.05-.39.03-.19.01-.39.05-.57.05-.26.01-.51.03-.77-.07-.15-.03-.31-.04-.46,0-.03-.02-.06-.03-.1-.05-.19-.12-.38-.13-.57-.01-.15-.07-.28-.1-.42,0-.03-.04-.06-.06-.08-.11,0-.22,0-.33,0-.07,0-.14.02-.2-.04-.03-.03-.13-.04-.17.04-.15-.05-.29-.1-.46-.16-.25-.22-.44-.51-.6-.92-.22-.24-.48-.54-.75-.84v.02c-.11-.05-.22-.1-.32-.16-.04-.02-.06-.07-.07-.12-.07-.26-.19-.51-.24-.77-.06-.3-.17-.58-.26-.87-.04-.12-.05-.26-.07-.39-.05-.09-.13-.18-.15-.28-.02-.09,0-.21.05-.3.04-.1.04-.2.06-.3.04-.2.03-.41.05-.61,0-.09.03-.18.04-.26,0-.09-.02-.18,0-.26.07-.2.02-.41.04-.61.02-.22.01-.44.05-.65.02-.09.01-.18.04-.26.03-.09.01-.19.04-.26.05-.13.04-.28.11-.41.05-.08.05-.2.05-.3,0-.08.02-.15.05-.22.03-.07.05-.14.05-.22,0-.07.04-.14.04-.22.02-.15.06-.29.09-.44.02-.1.07-.19.07-.29,0-.13.07-.26.05-.4,0-.06.02-.12.04-.18.05-.18.08-.36.09-.55.01-.16.08-.32.08-.49.08-.06.04-.15.04-.22.01-.25.07-.49.04-.74.07-.14.03-.29.04-.44,0-.04.03-.08.03-.12,0-.05-.01-.1-.02-.17,0-.04.03-.1.03-.16.02-.24.03-.48.04-.72.08-.13.02-.27.06-.41.04-.13.04-.28.08-.4.08-.28.11-.57.25-.83-.01-.12.07-.22.11-.33.02-.06.03-.13.06-.19.14-.29.3-.57.53-.8.11-.12.24-.18.38-.23.03,0,.06,0,.08-.01.12-.11.29-.13.44-.15.14-.02.26-.08.39-.11.31-.09.59-.27.85-.46.1-.07.18-.15.28-.23.07-.06.12-.13.21-.18.07-.04.1-.14.14-.22.05-.08.09-.15.14-.23v-.48c-.08-.07-.17-.14-.25-.22-.11-.1-.18-.22-.18-.38,0-.06-.04-.13-.08-.23,0-.04.02-.13,0-.21-.02-.08-.04-.15-.08-.23-.02-.06-.04-.13-.05-.2-.02-.11,0-.23,0-.35.14-.15.08-.34.08-.52,0-.05-.06-.12-.12-.16-.15-.1-.27-.22-.33-.39,0-.02-.02-.04-.02-.05,0-.2-.03-.4.05-.59.04-.09.04-.16,0-.24-.01-.03-.02-.07-.02-.1,0-.08.03-.16.04-.24,0-.08.02-.15.04-.22.04-.13.14-.22.2-.33.05-.1.14-.18.21-.26.09-.09.14-.2.16-.32.03-.17.13-.47.22-.58.05-.06.12-.12.18-.18.06-.07.12-.15.21-.17.09-.02.17-.04.25-.07.08-.03.16-.02.24-.04.17-.1.35-.19.5-.28.18-.04.35-.08.51-.13.05-.02.09-.02.14-.02.13-.01.26,0,.4-.03.2-.04.43,0,.61.09.18.08.4.13.52.32.02.02.06.03.11.05,0,0,.01-.02.03-.02.14-.02.29-.05.43-.05.28,0,.56,0,.85,0,.07,0,.14.02.2.05.15.09.31.16.38.33.04.09.08.17.13.28,0,.11,0,.25,0,.38-.02.2.04.39.09.57.04.15.04.29.04.44,0,.15-.05.27-.12.41-.11.21-.24.42-.27.67,0,.06-.06.12-.08.18-.04.09-.07.2-.08.29-.02.15-.09.25-.18.33-.02.12.11.16.13.26v.22c-.07.1-.17.15-.29.16.02.08.04.17.07.27,0,0-.02.03-.04.06.13.19,0,.38,0,.59-.04.03-.09.07-.13.1v.12c-.08.07-.16.15-.25.24-.22.06-.45.13-.71.21-.05.23.07.49.04.74.23.05.45.1.67.15,0,0,.02-.02.02-.02-.01-.07-.03-.15-.04-.22,0-.08,0-.15-.04-.22-.02-.02-.02-.08,0-.1.09-.11.08-.26.18-.36.1-.1.21-.17.35-.21.01,0,.02-.01.03-.02.05.01.09.05.14.04.23-.03.41.09.56.21.22.16.45.31.64.5.06.06.14.11.21.17.01.01.01.04.02.05.08.05.16.09.22.15.11.1.24.18.36.28.12.1.25.21.33.36.04.08.11.14.17.21.15.18.27.4.35.64.04.11.09.21.15.31.12.18.25.36.36.55.05.09.12.16.18.25.08.12.2.22.29.34.13.19.31.34.42.54.02.04.07.07.11.11.11.13.26.24.33.39.09.18.24.3.35.46.1.16.24.29.35.44.15.22.28.46.34.73.02.1.02.21.04.31.02.1.07.19.08.29.01.11,0,.22,0,.33,0,.07.06.16.03.19-.06.08-.02.15-.05.22-.04.1-.09.19-.12.29-.05.07-.09.14-.14.2-.12.15-.26.3-.45.37-.23.09-.47.12-.7,0-.1-.05-.2-.11-.3-.16-.14-.07-.25-.16-.38-.25-.14-.1-.26-.21-.39-.32-.18-.16-.36-.33-.49-.53-.07-.11-.13-.22-.19-.33-.1-.18-.14-.4-.28-.56-.01-.01-.01-.04-.02-.06-.05-.15-.08-.19-.22-.32-.1-.09-.2-.17-.3-.27-.09-.09-.17-.19-.26-.28-.06-.06-.13-.11-.19-.16-.11.04-.1.14-.07.2.07.17.03.34.04.51,0,.1,0,.2.07.26.02.11.05.2.06.3,0,.1-.03.21,0,.3.06.14.06.29.03.42-.05.23,0,.47-.12.69.02.24-.14.44-.19.66-.02.1,0,.21-.07.3-.06.08-.03.19-.05.28-.08.36-.04.73-.03,1.09,0,.3.06.6.13.9.04.16.12.32.13.49,0,.08.06.16.08.25.04.2.05.4.1.59.04.17.03.34.03.51,0,.17.03.34,0,.5-.05.23,0,.47-.12.69,0,.01,0,.03,0,.04,0,.24-.09.48-.04.72.15.74.05,1.48.09,2.23,0,.08.03.16.04.24,0,.09,0,.17,0,.26,0,.05.03.09.04.13.04.2.07.39.09.59,0,.06.02.12.04.18.06.12.03.25.04.37,0,.1.03.21.04.31.01.1-.03.2.04.29.01.02.01.06,0,.08-.07.16.03.32,0,.49-.01.08.06.15.05.24-.01.08-.02.17.04.24-.02.21.08.39.13.58.03.13.09.25.15.37.1.23.23.44.32.67.1.26.24.51.32.78.01.04.05.08.07.12.02.03.04.06.06.09.06.11.09.24.14.36.05.11.12.23.17.34.09.18.13.37.21.54.04.08.06.18.09.26.04.09.05.18.08.27.06.2.11.4.18.6.03.06,0,.13.04.18.05.05,0,.13.03.16.06.06.03.12.04.18.03.15.05.3.09.44.02.07.04.14.04.22,0,.07.03.15.04.22.01.07,0,.13.03.2.04.09.04.2.05.3.02.22.03.43.09.64,0,0,0,.01,0,.02.01.26.03.52.04.79,0,.08.03.16.04.24.01.07-.03.16.04.22.01.01,0,.06,0,.08,0,.2.03.38.08.57.03.12.03.25.05.37.06.44.21.85.47,1.22.12.17.25.32.38.48.1.13.27.19.33.36,0,.02.04.05.06.06.16.04.24.17.35.26.07.06.15.11.21.17.24.23.42.5.52.83,0,.01.02.02.04.05.18-.01.34.09.52.16.16.07.31.16.48.2.05.01.1.03.16.03.35.03.68.14.97.32.19.12.38.28.42.54,0,.04.05.08.06.11.02.11.05.2.06.3,0,.1-.03.21,0,.3.05.13.03.25.04.38.02.25.06.51.04.76,0,.05-.02.11-.03.18.06.11.03.26.02.41,0,.03-.03.06-.03.09-.02.38-.23.66-.49.9-.06.06-.13.09-.2.14-.15.11-.33.15-.49.22-.23.11-.48.18-.72.26-.12.04-.24.09-.36.12-.06.01-.12.02-.18.05-.15.07-.3.11-.47.13-.03,0-.07.02-.1.03-.16.07-.33.07-.5.1-.16.02-.31.02-.47.08-.09.04-.19.01-.29.04-.15.05-.32.02-.48.05-.26.05-.53,0-.78.05-.29.05-.57.02-.85.03-.16,0-.3.07-.46.05-.16-.02-.32,0-.48,0-.16,0-.32-.03-.48-.04-.16,0-.33.03-.48,0-.19-.05-.38-.03-.57-.03-.1,0-.2-.06-.31-.05-.09.01-.19-.01-.29-.03-.18-.04-.36-.03-.54-.05-.09,0-.18-.03-.26-.04-.08-.01-.17.04-.24-.04-.01-.01-.04,0-.06,0-.19.03-.37-.02-.54-.05-.22-.04-.45-.03-.67-.12-.03-.01-.07,0-.11,0-.14.03-.27-.03-.39-.05-.07-.01-.13-.03-.2-.04-.07,0-.13.02-.2-.04-.05-.04-.13.02-.2-.03-.06-.05-.16,0-.24-.05-.1-.05-.23-.03-.35-.05-.07-.01-.14-.01-.2-.05-.06-.04-.13-.01-.18-.04-.05-.04-.11-.03-.16-.04-.08-.02-.16-.06-.25-.08-.15-.03-.3-.09-.45-.13-.11-.03-.21-.09-.32-.13-.23-.08-.46-.18-.69-.27-.03,0-.05-.01-.08-.02-.3-.16-.61-.28-.92-.39-.19-.07-.37-.17-.56-.22-.32-.07-.62-.2-.93-.28-.21-.06-.43-.1-.63-.21-.15-.08-.27-.19-.35-.34-.01-.02-.02-.05-.02-.04Zm8.71-41.92s0,0,0,0c.01.01.02.02.03.04,0,0,0,0,.01-.01-.01-.01-.02-.02-.03-.03-.07-.12-.14-.23-.21-.36-.1-.01-.23-.06-.32-.03-.12.04-.24.01-.35.04-.08.01-.14-.02-.19-.06-.17-.11-.32-.24-.51-.39-.07,0-.18-.04-.29-.02-.07.01-.13.03-.2.04-.09,0-.17.02-.26.03,0,.04,0,.07-.02.08-.13.1-.17.26-.25.4-.06.1-.12.2-.21.27-.14,0-.23-.06-.26-.2-.08-.13.06-.23.07-.35-.13,0-.25.03-.36.02-.13-.01-.24.07-.36.05-.06.06-.1.1-.15.15.06.18-.12.35-.07.55.05-.02.08-.04.12-.06.09.04.17.08.2.18.08.2.13.41.1.63,0,.05-.04.1-.06.15h-.15s-.04.07-.06.12c.16.04.32-.03.45.06.09-.1.18-.03.27,0,.02-.03.07-.06.06-.09,0-.13.08-.22.12-.32.04-.12.13-.15.23-.17.05,0,.09-.03.11-.04.05-.17-.01-.3-.08-.42.09-.12.12-.25.1-.36.05-.07.08-.11.1-.14h.19c.08.08.16.15.2.27.02.07.08.09.16.07.05-.05.11-.11.16-.17h.18s.06.09.09.13c.08-.02.16.02.25-.04.07-.05.17,0,.26-.04.12-.05.26-.04.39-.06.19-.03.36.06.55.04Zm-7.04,15.4c0-.11,0-.24,0-.37,0-.1.02-.19.03-.29.05-.26.13-.5.27-.72.04-.07.07-.15.09-.22.05-.24.15-.46.2-.71.04-.21.12-.41.11-.63,0-.04,0-.09.03-.12.06-.09.06-.18.06-.24.06-.15.1-.26.16-.42.01,0,.06-.05.1-.08,0-.04,0-.07,0-.09.05-.08.04-.15,0-.25-.09-.25-.17-.51-.14-.79,0-.03.01-.06,0-.09-.1-.18,0-.34.04-.51.02-.09.07-.13.12-.18h.17c.09.09.14.18.16.31.02.12.01.24.04.35.02.07.02.14.04.2.02.07.03.13.04.2.02.1.07.18.17.24.14.09.3.1.45.12.13.02.26.01.39,0,.12,0,.25-.02.37-.04.11-.02.21-.09.33-.09.11-.12.28-.14.42-.2.23-.09.46-.18.73-.14.04.06.09.13.12.17-.02.06-.03.1-.04.16-.12.11-.24.25-.39.36-.12.08-.2.2-.32.27-.2.12-.39.24-.61.31-.13.04-.27.06-.4.07-.17.01-.33,0-.5,0-.17,0-.33-.05-.5-.13.02.1.04.19.06.29.1.05.14.17.19.27.04.08.07.17.11.26.04.09.14.15.13.27,0,.03.04.07.06.08.06.02.12.04.18.04.21.02.41.09.62.09.07,0,.15.03.22.05.03.01.04.05.07.09-.04.03-.06.05-.11.08h-.23c.12.11.26.06.38.08.02.03.05.05.08.1-.07.05-.13.08-.18.12-.08.08-.18.01-.26.04-.2.23-.39.45-.57.66v.55h.09s.07.07.11.11v.2c-.12.03-.23.07-.34.1-.2.38-.33.78-.47,1.17.02.02.03.03.05.05.01,0,.02.02.04.02.17,0,.29.11.38.23.14.18.26.37.39.56.16.21.27.46.4.68.11.18.19.38.3.56v.18c-.05.07-.08.1-.1.13-.13-.04-.22-.12-.3-.23-.09-.13-.23-.23-.31-.37-.12-.2-.31-.34-.39-.56-.1-.06-.13-.18-.18-.27-.05-.1-.14-.16-.19-.27-.06-.12-.15-.22-.23-.34-.19.25-.23.54-.31.81-.09.3-.14.61-.21.95-.06.1-.11.24-.11.4,0,.16,0,.32,0,.48,0,.04-.02.1,0,.13.07.09.02.19.04.29.02.1.05.2.04.31,0,.09,0,.19,0,.3.18.11.36.23.47.44.08.19.14.39.25.56.1.16.16.33.23.49.13.31.13.64.17.97.01.12.02.25-.02.38-.04.12-.03.26-.06.39-.04.19-.09.35-.22.5-.05.05-.09.11-.11.15.03.17.09.3.15.43.05.1.06.22.09.33.06.17.1.33.09.51,0,0,0,.02,0,.02.06.11.06.24.08.36.02.13-.01.27.05.39,0,.01,0,.03,0,.04-.09.18-.02.38-.04.57,0,.05.02.12,0,.15-.07.08-.02.17-.04.25-.02.09-.04.18-.04.26,0,.2-.08.39-.05.59,0,.01,0,.03,0,.04-.07.07,0,.16-.04.22-.04.08-.04.16-.04.24,0,.15,0,.3,0,.46,0,.13.01.25.04.37.06.3.15.59.24.88.09.29.17.58.31.85.05.09.06.19.1.28.07.15.1.33.18.47.12.21.15.46.29.66.09.32.24.61.33.93.07.24.16.47.2.72.02.15.05.3.1.44.04.13.08.25.07.38,0,.03-.01.07,0,.08.08.09.02.19.04.29.02.09.04.19.04.29,0,.23.02.45-.04.68-.04.17-.08.34-.15.5-.07.16-.18.3-.25.46-.04.11-.14.21-.21.31v.12s.07.07.07.07c.2.07.36.1.52.17.21.1.41.18.65.17.1,0,.2,0,.29,0,.09-.05.17-.1.23-.13.02-.12.06-.22.06-.31.02-.52,0-1.05-.05-1.57,0-.12-.02-.24-.04-.35-.01-.06-.03-.12-.04-.18,0-.06-.03-.12-.04-.18-.02-.19-.03-.38-.04-.57,0-.02,0-.05,0-.06-.06-.08-.03-.18-.04-.27-.01-.09-.03-.18-.04-.26-.02-.1.04-.19.04-.29.01-.3-.02-.6.05-.89.03-.13-.05-.25-.04-.37,0-.15,0-.3,0-.46,0-.13-.03-.26-.06-.39-.03-.16-.08-.32-.08-.49,0-.06-.02-.12-.04-.18-.08-.25-.13-.51-.14-.75-.03-.07-.08-.13-.08-.18.02-.19-.05-.38-.05-.57,0-.17,0-.33,0-.5,0-.04.02-.09,0-.11-.08-.08-.03-.18-.04-.27-.02-.1-.03-.19-.04-.29-.02-.13,0-.26-.04-.4-.05-.18-.04-.38-.05-.57,0-.04.02-.1,0-.13-.08-.09-.02-.2-.06-.3-.04-.1-.02-.22-.02-.34,0-.27,0-.54,0-.8,0-.27-.08-.54-.05-.81,0-.02,0-.05,0-.06-.09-.12-.03-.25-.04-.37-.01-.13-.03-.27,0-.39.03-.1.03-.19.04-.29.01-.1.03-.19.04-.29,0-.06,0-.13,0-.2v-.22c0-.07,0-.13,0-.2,0-.07.02-.14.02-.21,0-.05.02-.1.02-.15,0-.07,0-.14,0-.22,0-.07,0-.13,0-.2,0-.03.03-.06.03-.1,0-.06,0-.12-.01-.17,0-.06.03-.12.03-.18,0-.16-.01-.33.04-.48.02-.04.04-.09.04-.13,0-.09,0-.17,0-.26,0-.07-.01-.15.03-.23.04-.07,0-.17,0-.24.03-.06.06-.12.09-.18-.1-.1-.2-.19-.29-.29-.12-.14-.22-.3-.2-.5.02-.02.04-.04.06-.06.08.04.15.09.19.17.04.08.14.15.21.21.06.05.13.1.19.14.17-.09.29-.02.4.05.09-.02.18-.03.23-.11.04-.07.1-.14.15-.22v-.12s.06-.05.08-.06c.06.05.1.08.13.1v.34c-.07.1-.11.19-.17.26-.06.07-.15.12-.21.18v.71c.04.05.08.1.11.15.08.13.14.26.19.4.04.12.07.26.12.38.06.13.05.28.1.42.05.12.07.25.1.37.03.14.04.3.11.43.03.05.05.11.06.17.03.24.15.46.21.7.04.18.12.34.18.51.09.25.19.49.31.72.12.23.23.47.35.7.05.1.11.2.17.32-.02.07.03.15.08.23.13.22.28.43.4.66.1.2.22.38.34.55.12.16.24.32.23.54,0,.04.03.09.05.14-.04.09-.09.17-.12.24.03.07.06.13.07.19.03.13.06.26.1.4,0,.04.03.08.04.12.01.06-.02.12.04.18.04.04,0,.12.05.18.04.05.05.13.05.2,0,.18.07.35.12.52.03.12.1.23.15.35.06.17.13.32.23.47.17.24.31.5.51.72,0,.09.1.11.13.18.08.18.17.35.26.52.09.17.13.37.21.54.05.1.07.22.1.33.06.19.09.38.16.56.06.16.11.34.13.51.01.1.03.21.06.3.02.05.03.09.03.14,0,.13,0,.25.04.38.03.09,0,.2,0,.3,0,.1.04.21.04.31,0,.1.02.19-.04.29-.02.04.03.11.04.17,0,.11,0,.22,0,.33.04.06.08.12.12.17.27.26.52.54.75.84.15.19.29.39.45.57.09.1.18.19.3.27.21.15.46.19.67.34.05.03.12.03.18.05.07.02.14.04.21.07,0,0,0,.01,0,.02h.18c.11-.09.06-.18,0-.27.13-.08.11-.22.13-.33.03-.13,0-.27,0-.43-.07-.07-.13-.16-.22-.23-.11-.09-.24-.16-.35-.24-.13-.1-.26-.2-.37-.32-.11-.12-.19-.27-.31-.39-.07-.07-.13-.16-.18-.25-.14-.2-.25-.41-.38-.6-.11-.17-.23-.54-.28-.76-.02-.1-.02-.21-.05-.31-.02-.06-.03-.12-.04-.18-.01-.07-.03-.13-.04-.2-.01-.12-.01-.23-.04-.35-.05-.24-.05-.48-.09-.72-.03-.17,0-.35-.04-.53-.04-.18-.01-.37-.05-.54-.04-.18-.1-.36-.08-.55-.06-.05-.04-.12-.04-.18,0-.07-.04-.13-.04-.2,0-.08-.01-.16-.04-.24-.03-.08-.02-.16-.04-.24-.02-.06-.05-.13-.05-.2,0-.19-.12-.36-.09-.55-.09-.2-.13-.42-.19-.64-.05-.16-.11-.32-.15-.48-.06-.24-.23-.73-.35-.96-.02-.05-.07-.09-.08-.14-.05-.23-.2-.43-.27-.65-.07-.19-.18-.38-.28-.55-.05-.08-.03-.18-.08-.25-.07-.1-.12-.19-.15-.31-.03-.11-.11-.19-.14-.31-.03-.13-.1-.25-.17-.38.02-.2-.08-.4-.11-.61-.01-.11-.06-.21-.06-.32,0-.2-.09-.38-.09-.57-.09-.14-.09-.31-.12-.47-.04-.16-.07-.32-.09-.48-.02-.2-.05-.4-.09-.59-.01-.06-.03-.12-.04-.18-.02-.13,0-.27-.05-.39-.07-.2-.09-.41-.08-.62,0-.04.02-.1,0-.13-.08-.08-.02-.18-.04-.27-.02-.1-.03-.19-.04-.29-.02-.23,0-.45-.03-.68-.04-.26,0-.54-.05-.81-.02-.11-.02-.24.04-.35-.02-.23.05-.46-.04-.68-.01-.03-.02-.08,0-.11.08-.09.02-.19.04-.29.02-.1.03-.21.04-.31,0-.01-.01-.02-.02-.05-.03.02-.06.03-.08.05-.06.06-.12.13-.19.18-.06.05-.16.08-.17.14-.02.11-.12.1-.18.16-.12.13-.25.23-.42.28-.03-.01-.06-.03-.1-.05-.02-.05-.04-.1-.06-.14.06-.15.14-.28.27-.38v-.09c.22-.25.43-.48.61-.74,0,0,.01-.01.02-.02,0,0,0,.01.01.02.12-.09.24-.17.38-.26-.04-.22-.07-.44-.11-.66-.08-.08-.01-.18-.07-.28-.05-.08-.03-.2-.05-.3-.02-.1-.04-.2-.12-.28-.14-.11-.27-.23-.4-.34v-.21c.07-.08.14-.15.19-.2h.2c0,.07,0,.14.01.2.05-.1.01-.21.08-.31.01-.02.01-.07,0-.08-.11-.13.03-.23.03-.35,0-.04.01-.08.02-.11-.14-.02-.26-.04-.38-.07-.11-.03-.23-.07-.33-.15-.08-.07-.18-.12-.27-.19-.03-.03-.04-.08-.05-.09.03-.06.06-.1.08-.13.14,0,.26.02.35-.09.02.01.03.03.03.02.17-.05.34-.07.49-.16.15-.09.29-.18.4-.26.02-.1.01-.16.04-.22.08-.19.08-.39.1-.59.02-.14.03-.3-.04-.44.02-.26-.08-.51-.04-.76.01-.09-.01-.18-.06-.24-.16.1-.31.2-.47.29-.11.06-.24.08-.36.14-.09.05-.2.08-.29.08-.2,0-.41.02-.61-.03-.26-.05-.52-.08-.76-.23,0,0-.01,0-.02,0-.11-.02-.2-.08-.29-.14-.07-.04-.14-.09-.23-.15,0,.16,0,.3,0,.43.01.24-.03.47-.15.67-.04.02-.08.04-.11.06-.15-.08-.15-.08-.19-.17-.06-.15-.15-.28-.12-.45,0-.05-.01-.09-.03-.14-.04-.11.02-.25-.04-.36.07-.11.03-.22.03-.33,0-.24.07-.46.12-.69.04-.18.14-.35.1-.53.05-.02.08-.04.13-.06.13.16.24.35.26.56.02.17,0,.35.07.52.1,0,.2,0,.3,0,.1,0,.18.07.29.04.15.12.35.06.51.13.11.04.23.04.35.05.08,0,.19.02.25-.02.08-.05.19.03.26-.07.17.02.32-.07.47-.13.14-.06.27-.17.41-.21.14-.03.18-.12.19-.21.1-.06.22-.06.28-.16.01-.02.03-.03.05-.03.12,0,.2-.13.33-.09.01,0,.04-.04.06-.06-.09-.11-.17-.22-.27-.32-.24-.23-.46-.47-.71-.68-.18-.15-.37-.3-.51-.5-.06-.08-.11-.16-.16-.24-.05-.08-.05-.18-.11-.24-.12-.14-.16-.32-.23-.47-.06-.13-.09-.28-.01-.44.05-.1.04-.23.06-.37-.07.03-.1.06-.14.06-.04,0-.09-.03-.13-.04-.03,0-.06,0-.08.01-.04.05-.09.03-.14.03-.16,0-.32,0-.48,0-.07,0-.14.02-.19,0-.05-.02-.09-.04-.14-.04-.05,0-.1.03-.16.04-.04.01-.09.03-.14.04-.05-.04-.11-.07-.17-.11.04-.1.04-.19.15-.24.05-.02.1-.08.11-.14.03-.09.06-.21.03-.29-.05-.14.07-.25.04-.38.1-.22.14-.45.12-.66.07-.2.23-.2.36-.22.16-.14.31-.28.46-.41.02-.34-.09-.67-.04-.96.05-.07.08-.11.09-.13.07,0,.12-.01.16-.02-.05-.14-.1-.28-.17-.45,0-.15-.08-.33-.05-.49.04-.13.12-.19.22-.23.13-.04.22-.13.26-.27,0-.03.03-.05.05-.08-.01-.1-.03-.22-.04-.3-.09-.06-.17-.09-.22-.14-.12-.12-.25-.24-.43-.28-.03.07-.14.02-.19.09-.05.07-.12.11-.19.16-.14-.03-.28.02-.42-.04-.06-.03-.12.02-.17.08-.05.06-.09.13-.15.17-.12.1-.26.16-.42.13-.04,0-.09-.04-.13-.05-.03.03-.05.05-.08.07v.18c-.08.2-.21.36-.36.48-.1.02-.18.03-.27.05-.16-.07-.33-.15-.45-.31-.05.05-.09.08-.14.13-.05-.06-.08-.11-.13-.17-.13.17-.06.35-.08.51-.03.06-.06.12-.09.17.03.05.05.09.06.1.1.04.18.08.27.11.01-.03.03-.06.05-.1.05.02.1.04.14.05.02.2-.03.37-.08.54.13.12.22.26.22.44.08.1.18.17.29.21.08.03.16.06.24.11.21.13.42.24.65.31.2.06.41.11.55.28v.09c-.13.07-.26.1-.37.03-.09,0-.17.04-.22.01-.06-.03-.11-.03-.16-.03-.1,0-.19-.02-.29-.05-.13-.04-.27-.05-.38-.14-.15-.12-.32-.18-.47-.28-.1-.07-.16-.14-.2-.25-.03-.08-.04-.16-.06-.25-.1.06-.09.16-.06.22.04.09.03.18.04.27,0,.01.01.02.02.03.03,0,.05.02.08.03-.04.02-.07.03-.1.04,0,.11,0,.21-.08.31-.03.05-.09.13-.05.19.08.11,0,.25.08.36.01.19.03.38.04.57,0,.01.02.02.03.03.02,0,.04-.01.06-.02v-.06c.05-.06.08-.11.1-.13h.18c.04.07.07.14.11.21-.01.24.07.47.12.71-.07.11-.01.31-.21.35-.01.1.02.2-.02.3-.11-.05-.13-.13-.15-.22-.03-.09-.07-.21-.16-.22-.14-.02-.22-.14-.35-.18-.19.18-.39.37-.59.55-.02.02-.04.04-.07.05-.14.05-.23.17-.35.23.12.15.23.3.34.44-.05.1-.13.07-.18.07-.16-.12-.31-.23-.45-.34-.24.12-.49.2-.72.27-.18.05-.35.08-.51.13-.25.08-.44.22-.57.46-.08.15-.16.31-.23.47-.11.25-.2.51-.29.77-.03.09-.04.18-.04.27.01.2.06.39.04.59,0,.03.03.06.05.08-.02.02-.04.04-.04.05.01.03.03.06.03.1,0,.26,0,.52,0,.78,0,0,0,.01-.01.01h-.15s-.05-.08-.09-.13c0,.28-.07.53-.05.79,0,.12.03.24-.04.35-.02.03,0,.09.01.12.05.1.04.21.01.29-.03.07-.03.14-.03.2,0,.11,0,.22,0,.3.27.51.34,1.05.43,1.59-.06.04-.09.13-.21.1-.05-.06-.1-.13-.16-.22-.11.02-.23.04-.35.06-.02.14-.08.27-.05.42-.07.09-.02.21-.06.3-.1.24-.11.51-.16.76-.04.18-.06.35-.09.53,0,.03-.04.06-.04.09.01.1-.03.19-.05.29-.02.09-.01.2-.05.28-.03.08-.04.16-.04.24,0,.11-.03.2-.07.3-.06.15-.11.3-.1.46,0,.14,0,.29,0,.43,0,.14.03.28-.04.42-.02.04,0,.12.02.16.06.08-.02.13-.02.18.12.2-.06.39.02.6,0,0,.02.01.03.03.09.22.18.45.26.67.07.18.12.37.17.56.05.21.15.41.14.64.08.1.03.2-.01.3.03.02.05.06.08.06.2.02.35.12.52.21.15.08.24.18.31.31.16.28.34.56.57.77.15.04.28.09.41.1.14.02.29,0,.43,0,.02-.01.03-.04.05-.04.25-.08.32-.3.36-.52.04-.2-.04-.39-.04-.59-.08-.04-.02-.13-.06-.19-.12-.21-.21-.45-.4-.62-.1-.08-.14-.2-.18-.32-.02-.07-.01-.15-.02-.23-.06-.02-.12-.04-.18-.05-.14-.01-.23-.12-.34-.17-.13-.05-.22-.14-.31-.26-.08-.12-.21-.22-.32-.33-.1-.1-.16-.24-.35-.3-.07,0-.18,0-.3,0-.02-.02-.04-.04-.07-.07.02-.21.04-.44.05-.66,0,0,0-.02,0-.02.1-.06.01-.17.07-.26.05-.07.04-.17.06-.26.05-.19.11-.38.16-.56.04-.16.07-.32.15-.46.05-.09.02-.18.05-.26.08-.2.11-.41.17-.61.04-.14.02-.3.12-.43-.03-.12.1-.24.02-.37-.11.05-.22.1-.32.15-.11-.11-.12-.13-.06-.24.13-.25.26-.5.4-.77Zm11.46,24.02c-.2.05-.38-.06-.57.01-.02,0-.05,0-.06,0-.05-.06-.11-.03-.16-.04-.05,0-.1.01-.14-.04-.04.05-.11.06-.15.04-.09-.05-.18-.04-.27-.04-.02,0-.05,0-.06,0-.13-.07-.27-.05-.4-.08-.14-.03-.29,0-.41-.05-.18-.08-.38-.06-.56-.12-.13-.04-.28-.02-.41-.05-.11-.02-.23-.04-.34-.07-.17-.06-.35-.09-.53-.14-.17-.05-.34-.1-.5-.16-.3-.11-.57-.26-.85-.4-.02.02-.06.04-.05.06.02.19-.15.3-.2.46-.29.31-.64.48-1.07.52-.2.02-.4,0-.59-.05-.13-.04-.26-.05-.38-.12-.25-.14-.51-.26-.77-.39-.05-.03-.11-.06-.15-.11-.05-.06-.09-.12-.14-.2-.07-.16-.04-.35-.05-.53,0-.11.03-.2.1-.29.02-.02.02-.05.03-.07.06-.16.14-.3.23-.45.14-.24.27-.49.25-.75-.28-.25-.43-.56-.65-.81,0-.02.01-.06,0-.08-.08-.1-.16-.2-.24-.29-.04-.05-.1-.09-.14-.14-.15-.26-.35-.48-.56-.68-.16-.16-.33-.32-.5-.47-.22-.2-.47-.35-.74-.47-.14-.06-.29-.09-.44-.06-.04.04-.08.07-.11.1-.02.18.13.33.09.51.08.09,0,.22.05.3.06.11.03.21.03.31,0,.23,0,.46,0,.7,0,.04.02.1,0,.13-.07.08-.03.17-.04.25-.01.08-.04.16-.04.24,0,.11-.04.22-.07.32-.07.28-.24.52-.35.79-.08.18-.17.35-.28.52-.1.16-.2.32-.29.49-.04.08-.11.16-.15.24-.05.08-.1.17-.12.25-.01.09-.08.16-.09.25-.01.19-.02.38.08.55.02.04.03.09.05.13.09.18.14.38.2.57.12.39.25.77.24,1.18,0,.06.02.12.04.18-.01.02-.03.04-.06.07.07.05.1.1.19.13.26.08.51.16.77.23.13.03.24.12.37.15.14.03.28.06.4.14.47.09.86.37,1.31.5.17.05.33.14.5.21.17.07.35.14.53.2.16.05.32.09.49.14.2.05.4.12.61.15.12.01.23.07.36.07.09,0,.19.03.28.05.15.04.31.08.47.08.03,0,.06,0,.09,0,.21.08.44.08.67.12.18.03.37.09.57.05.03,0,.06,0,.08,0,.16.06.32.09.49.08.04,0,.09-.02.11,0,.06.06.13.03.2.04.07,0,.15.04.22.04.14.01.28,0,.42.04.14.04.3-.01.44.05.3-.01.59.07.89.05.22-.02.43,0,.65,0,.06,0,.12,0,.18.03.07.03.18.04.25,0,.09-.04.16-.03.25-.04.15,0,.3,0,.46,0,.15-.01.29.02.44-.03.14-.04.3,0,.45,0,.01,0,.03,0,.04,0,.1-.07.22-.03.33-.04.12-.02.23-.05.35-.05.15,0,.31-.03.46-.04.08-.09.2-.03.3-.06.21-.06.43-.13.65-.16.09-.01.19-.03.28-.05.26-.08.51-.16.77-.24.32-.1.6-.26.9-.4.05-.03.09-.08.13-.13.1-.15.11-.32.13-.49.02-.13,0-.26,0-.39,0-.13-.03-.26-.04-.4-.02-.24.02-.48-.04-.72-.03-.13-.07-.26-.1-.37-.28-.17-.54-.33-.81-.5-.05.02-.12-.03-.2.03-.05.03-.15.03-.18-.06.01-.02.02-.03.03-.05-.19-.08-.37-.09-.53.02-.06.12-.11.23-.16.34-.12.28-.48.38-.68.31-.08-.03-.15-.01-.23-.03-.07-.02-.15-.03-.22-.04-.02,0-.06,0-.06,0-.07.09-.18,0-.26.07-.08.07-.17-.02-.26-.03-.11-.02-.24-.02-.33-.1-.09-.08-.23-.08-.29-.19-.01-.02-.07-.01-.09-.01-.09-.08-.16-.18-.29-.21-.02,0-.04-.03-.06-.05-.07-.06-.12-.13-.17-.21-.05-.08-.16-.1-.19-.23Zm-3.92-10.61c-.08-.12-.16-.24-.24-.37-.07-.12-.14-.25-.22-.36-.08-.11-.15-.23-.2-.35-.04-.11-.1-.2-.15-.31-.03-.06-.07-.11-.09-.18-.05-.15-.14-.29-.21-.44-.02-.04-.03-.08-.04-.11-.05-.11-.08-.23-.15-.33-.07-.11-.05-.24-.12-.34-.1-.16-.14-.35-.21-.52-.09-.24-.17-.48-.25-.72-.06-.2-.14-.39-.22-.58-.08-.18-.11-.39-.22-.56.02-.12-.11-.19-.1-.31,0,0-.03-.06-.07-.05,0,.01,0,.02,0,.03,0,.44,0,.88,0,1.33,0,.44.02.87-.03,1.31-.04.27-.01.55,0,.82,0,.27.03.54.04.81,0,.04.02.08.04.11.04.06.06.14.05.22,0,.1-.03.22,0,.3.04.09,0,.18.04.25.05.08.03.16.04.25,0,.04,0,.09,0,.13.04.18.09.36.09.55,0,.03.02.05.03.08.01.11.07.21.06.32,0,.06.03.12.04.18.01.07-.03.14.04.2.02.19.1.37.09.57,0,.03-.01.07,0,.08.08.07,0,.17.05.24.05.09.04.18.04.27,0,.04-.01.09,0,.1.07.08.02.17.04.25.02.08.03.16.04.24.01.14,0,.28.04.42.03.1,0,.22,0,.32,0,.11.04.22.04.33,0,.34,0,.68,0,1.02,0,.34-.03.68.03,1.03.03.16.04.32.06.48.02.18.09.36.08.55.08.09.04.2.04.31,0,.11.05.21.05.33-.01.32,0,.63,0,.96.26.14.53.25.8.35.09.04.19.07.28.1.21.07.42.14.63.2.18.05.37.04.55.09.05.01.1.03.16.04.06,0,.12-.01.17.01.11.05.23.05.34.07.12.03.25.03.37.05.04,0,.09-.01.1,0,.05.08.15.02.22.07.06.04.17.01.25.02.07,0,.15.04.22.04.16,0,.31.04.46.09.04.01.09,0,.15-.01-.03-.07-.05-.12-.08-.16-.17-.21-.34-.41-.38-.69-.14-.16-.12-.38-.15-.57-.04-.3-.04-.61-.05-.92,0-.18-.08-.35-.05-.53-.07-.09-.01-.2-.05-.28-.06-.13-.03-.29-.12-.41-.03-.24-.1-.46-.17-.69-.15-.47-.32-.93-.6-1.34-.04-.05-.04-.13-.06-.19-.19-.23-.38-.46-.53-.71-.15-.25-.27-.52-.41-.79,0-.06.02-.12,0-.17-.05-.09-.06-.19-.08-.29-.02-.11,0-.22-.04-.33-.03-.08.03-.19-.05-.26.02-.1-.03-.19-.04-.29-.01-.09-.03-.18-.04-.26-.03-.14-.06-.28-.09-.42,0-.04-.04-.08-.04-.11,0-.14-.06-.25-.11-.37-.03-.06-.05-.12-.08-.19Zm2.1-20.38c.09.08.24.09.22.23-.08.14-.22.18-.35.23,0,.03,0,.05,0,.05.11.11.22.21.28.36.03.08.09.15.14.23.15.24.3.47.44.71.1.17.19.34.29.51.09.15.2.3.26.48.02,0,.04-.02.06-.02-.1-.12,0-.27-.08-.38-.02-.03,0-.08,0-.13.22.09.25.12.3.29.04.14.11.27.09.42.08.1.03.22.04.33.02.11.04.22.06.35.31.32.67.63,1.09.87h.27c.09-.1.21-.18.24-.33.15-.14.14-.32.12-.49,0-.06-.05-.13-.04-.2,0-.09,0-.18-.04-.26-.05-.08-.04-.17-.04-.24-.02-.05-.03-.07-.04-.1-.03-.06-.06-.12-.08-.18-.02-.1-.12-.14-.17-.21-.16-.25-.34-.47-.55-.68-.05-.05-.09-.11-.13-.16-.18-.26-.37-.51-.59-.73-.03-.03-.06-.05-.08-.08-.12-.19-.26-.36-.41-.52-.18-.2-.34-.41-.49-.63-.14-.21-.23-.44-.33-.67-.14-.33-.28-.65-.55-.9-.11-.1-.21-.21-.33-.3-.12-.09-.24-.19-.36-.27-.1-.07-.19-.14-.27-.23-.18-.18-.4-.3-.59-.46-.02-.02-.07,0-.1,0v.11c.11.11.25.2.32.33.08.14.28.15.28.33v.21s-.04.04-.06.06h-.17s-.07-.06-.11-.08c-.03-.02-.05-.05-.09-.09v.3c-.17.1-.16.3-.26.44-.01.02-.01.06,0,.08.05.11.06.24.16.33.07.06.14.11.18.19.05.09.13.11.19.18.18.19.37.37.55.56.1.1.19.23.37.24.09-.07.21-.04.31.01.02-.02.04-.03.07-.05Zm-8.34,7.24s0-.11.02-.17c.04-.11.11-.22.15-.33.07-.19.21-.36.19-.57.06-.11.07-.25.14-.36.02-.03.03-.06.04-.08-.09-.19-.17-.36-.24-.54-.07-.17-.14-.34-.19-.51-.03-.11-.08-.21-.12-.33,0,.04-.02.06-.02.08.01.26-.03.52-.09.77-.05.22-.13.42-.22.63-.02.04-.07.07-.08.12-.04.19-.15.35-.14.55,0,.07-.07.15-.02.21.06.08-.02.18.06.24.02.21.13.41.1.63-.02.15.02.31-.04.46-.04.11-.03.23-.05.35,0,0,.02.02.02.02.04-.03.08-.07.11-.1.02-.1.07-.19.11-.28.05-.13.13-.25.15-.39.02-.13.06-.25.13-.38Zm1.75-12.45c-.05-.05-.1-.1-.17-.17.08-.06.15-.12.19-.15.08.01.12.02.18.03v-.17c-.11-.09-.22-.18-.34-.28-.07.04-.13.08-.18.11.02.06.04.12.04.17.03.26-.04.51-.1.76-.02.07-.04.14-.07.22q.15.3.3.36c0-.11,0-.22,0-.32-.01-.2.03-.38.14-.56Zm-3.01,16.25c.12.11.22.24.39.37,0-.09,0-.13-.02-.17-.03-.12-.09-.24-.1-.36,0-.12-.04-.22-.07-.36-.1.18-.21.33-.2.53Zm2.73-18.5c.12-.16.14-.35.26-.49.03-.03,0-.1,0-.15-.09.11-.18.22-.27.33-.06.07-.13.14-.11.25.04.02.07.04.12.06Zm4.44-1.48c.06.04.12.1.19.12.07.03.11.06.13.14,0,.03.03.06.06.11v-.32c-.12-.05-.24-.09-.39-.05Zm-4.53,2.24c.09.04.15.08.22.11.03-.09.06-.17.09-.25-.08-.03-.17.03-.23-.06-.02.07-.05.13-.07.2Zm4.9-1.79c-.03.12-.06.2-.08.28.04.02.08.05.16.09-.03-.13-.05-.23-.08-.37Zm-3.99,3.21h-.02v.13h.02v-.13Zm-1.23,10.27q-.01.07.09.06s-.07-.04-.09-.06Z"/>
      <path class="cls-6" d="m119.05,82.96s-.08-.04-.12-.06c-.02-.11.04-.18.11-.25.09-.11.18-.22.27-.33,0,.04.02.11,0,.15-.12.14-.14.33-.26.49Z"/>
      <path class="cls-6" d="m118.96,83.72c.03-.07.05-.13.07-.2.07.09.15.03.23.06-.03.08-.06.16-.09.25-.07-.03-.13-.06-.22-.11Z"/>
      <path class="cls-6" d="m123.86,81.93c.03.14.05.23.08.37-.08-.04-.11-.06-.16-.09.02-.08.05-.16.08-.28Z"/>
      <path class="cls-6" d="m119.87,85.14v.13h-.02v-.13h.02Z"/>
      <path class="cls-6" d="m118.64,95.41s.05.03.09.06q-.11,0-.09-.06Z"/>
      <path class="cls-6" d="m123.32,82s.02.02.04.03c0,0,0,0-.01.01-.01-.01-.02-.02-.03-.04,0,0,0,0,0,0Z"/>
      <path class="cls-6" d="m122.87,83.42c.03.06.06.12.09.17.01.08.03.16.04.27-.02.07-.05.16-.08.26-.08.03-.16.07-.24.1-.13.06-.25.03-.32-.07-.04-.05-.07-.1-.1-.15-.24.01-.44-.04-.59-.24v-.26s.08-.04.1-.07c.07-.07.15-.08.25-.09.14-.01.28-.04.44-.07.1.06.28-.01.41.13Z"/>
      <path class="cls-6" d="m119.02,110.54c.2-.05.38.02.56.03.16,0,.29-.05.39-.16.1-.11.22-.19.37-.24.02.03.05.08.1.15v.12c-.03.08-.06.15-.08.21-.08.23-.33.47-.61.45-.07,0-.13.02-.2.03-.08.02-.18-.03-.27-.06-.07-.02-.14-.04-.2-.1-.06-.07-.16-.1-.24-.14v-.16c.06-.04.13-.09.17-.13Z"/>
      <path class="cls-6" d="m122.05,96.98c-.07.1-.13.2-.2.29-.07.09-.17.15-.32.12-.09-.11-.2-.24-.29-.35-.02-.07-.04-.11-.06-.17.04-.16.13-.31.28-.43h.4c.06.07.13.15.19.23v.31Z"/>
      <path class="cls-6" d="m120.59,100.94s-.03-.07-.06-.13c.05-.04.11-.08.21-.15.08.02.18-.08.32-.14.07,0,.17-.03.26.04.03-.02.06-.03.08-.05.18.06.3.18.42.3.15.15.15.15.15.33-.03.06-.05.09-.06.12-.11-.06-.2-.12-.3-.17-.07-.03-.14-.05-.21-.06-.2-.04-.39-.03-.59-.04-.07,0-.14-.04-.22-.06Z"/>
      <path class="cls-6" d="m121.05,88.62c-.05-.07-.08-.11-.12-.16,0-.04-.02-.11,0-.16.11-.19.15-.42.32-.59h.19v.12c.07,0,.14,0,.22.01v.21c-.08.12-.15.22-.21.33-.09.17-.21.27-.4.24Z"/>
      <path class="cls-6" d="m125.84,110.52c.06.03.11.06.16.1v.26c-.11.08-.24.17-.37.26h-.47c-.05-.05-.13-.09-.11-.2.14-.15.31-.25.52-.28.09-.02.17-.08.27-.13Z"/>
      <path class="cls-6" d="m124.1,91.33c.16-.08.3-.05.43.02.17.09.11.23.08.36-.07.06-.13.11-.2.17-.13,0-.29.04-.36-.15-.06-.16-.05-.16.04-.4Z"/>
      <path class="cls-6" d="m121.15,90.45c.05-.04.12-.09.19-.13h.49s0,.07.01.1c-.13.16-.33.2-.5.3-.06-.04-.12-.07-.19-.1v-.17Z"/>
      <path class="cls-6" d="m118.98,92.28c.04.08.09.17.13.26-.02.06-.04.1-.06.15-.12.05-.22-.03-.33-.04-.06-.08-.11-.16-.09-.27.08-.09.19-.12.35-.1Z"/>
      <path class="cls-6" d="m120.52,84.57h-.09c-.12-.12,0-.24-.02-.37.1-.09.1-.09.21,0,.02.13.02.26-.1.37Z"/>
    </g>
    <g>
      <path class="cls-6" d="m232.43,176.9c-.06.07-.12.13-.17.2-.07.11-.15.21-.24.3-.07.08-.15.14-.21.23-.02.04-.07.07-.12.1-.08.05-.14.13-.21.2-.08.07-.16.13-.23.2-.07.07-.16.11-.23.17-.11.09-.23.17-.35.25-.31.21-.63.39-.97.55-.35.17-.72.31-1.08.43-.18.06-.36.1-.55.14-.1.02-.21.04-.32.09-.06.02-.13.02-.19.03-.11.02-.22.06-.32.07-.11,0-.22.04-.33.06-.09.02-.19.02-.29.04-.05,0-.1.02-.15.03-.04,0-.09-.01-.13.03,0,0-.02,0-.03,0-.14.01-.28.02-.42.03-.05,0-.11.02-.16.03-.05,0-.1-.02-.15.03-.02.02-.06,0-.09,0-.12,0-.23,0-.35,0-.07,0-.14-.02-.21-.03-.07-.02-.11-.06-.13-.12-.01-.04-.02-.09-.04-.13-.02.01-.04.03-.05.03-.09,0-.19-.01-.27.03-.2-.02-.39.05-.59.03-.17-.01-.33.03-.5.04-.14,0-.28.03-.42.06-.16.03-.33.05-.49.1-.17.05-.35.11-.51.2-.19.11-.39.22-.54.38-.08.08-.18.13-.24.22-.09.11-.19.22-.28.33-.08.1-.16.22-.31.24-.04,0-.09.04-.13.02-.07-.03-.16-.04-.21-.1-.06-.07-.1-.13-.1-.23,0-.15.04-.28.1-.41.17-.34.36-.65.57-.96.13-.19.27-.38.41-.57.09-.12.2-.21.29-.33.12-.16.27-.3.41-.44.12-.12.27-.22.41-.32.23-.18.49-.29.74-.41.13-.06.28-.11.41-.16.13-.05.28-.08.41-.13.22-.08.45-.1.66-.18.03-.01.07,0,.11,0,.08-.01.16-.08.22-.19.04-.08.07-.15.07-.25,0-.11.03-.2.11-.27.09-.09.19-.18.27-.29.05-.07.12-.13.2-.17.15-.09.42-.38.55-.55.05-.06.1-.12.15-.18.15-.18.27-.38.39-.57.13-.22.24-.45.35-.67.1-.2.15-.41.22-.61.07-.18.11-.37.15-.56.03-.14.06-.29.08-.43,0-.09,0-.18.03-.26.04-.09,0-.18.03-.26.05-.13.02-.26.03-.39.01-.12.03-.25.03-.37,0-.19-.04-.38-.03-.58,0-.05-.04-.09-.04-.15,0-.05.02-.11-.01-.17-.02-.04,0-.11-.02-.15-.03-.1-.03-.21-.07-.31-.04-.09-.02-.2-.09-.28,0-.19-.1-.37-.13-.55-.02-.13-.08-.24-.09-.38-.06-.06-.02-.14-.06-.22-.04-.07,0-.18-.04-.25-.05-.11,0-.24-.06-.34-.01-.02,0-.06,0-.09,0-.21,0-.42,0-.62,0-.17,0-.34.03-.51.02-.12.03-.24.06-.36.04-.11.02-.24.09-.35.02-.2.1-.39.16-.59.04-.13.11-.25.16-.38.05-.13.1-.25.16-.36.12-.2.24-.39.38-.58.17-.23.39-.41.59-.62.04-.05.1-.08.16-.12-.13-.06-.18-.15-.22-.27,0-.02-.02-.04-.02-.06,0-.06,0-.12-.03-.18-.02-.05,0-.12-.04-.18,0,0,0-.02,0-.03.01-.17-.02-.34-.04-.51-.02-.17-.02-.33-.02-.5,0-.17,0-.34,0-.51,0-.16.03-.32.04-.48,0-.15.03-.31.06-.45.04-.15.06-.31.12-.46.05-.15.1-.3.16-.45.11-.28.27-.52.44-.76.15-.21.32-.4.51-.57.21-.18.42-.35.65-.52.07,0,.06-.07.07-.1.04-.23.12-.44.17-.67.02-.07.05-.15.1-.21.11-.13.21-.29.37-.38.09-.05.1-.16.13-.25.05-.16.08-.32.13-.47.04-.1.05-.2.1-.3.04-.09.08-.19.11-.29.07-.22.16-.43.25-.63.08-.18.16-.36.25-.54.09-.17.2-.32.29-.49.17-.3.37-.57.56-.85.11-.16.22-.32.34-.47.08-.09.16-.19.22-.29.03-.06.08-.09.12-.14.03-.04.07-.09.1-.13.15-.17.3-.33.44-.51.08-.1.17-.18.25-.28.19-.23.41-.44.62-.65.15-.14.3-.28.45-.42.14-.12.27-.24.42-.35.14-.11.29-.22.44-.33.21-.15.43-.29.64-.43.08-.05.16-.11.24-.15.21-.09.39-.25.62-.31.1-.03.2-.09.3-.13.34-.16.69-.26,1.04-.38.11-.04.22-.05.33-.09.06-.02.12-.02.17-.05.06-.04.12,0,.18-.04.05-.04.12,0,.19-.04.08-.03.18-.01.25-.04.08-.03.17,0,.24-.04.07-.04.16.02.22-.05,0,0,.02,0,.03,0,.11,0,.22-.01.32-.03.24-.03.48-.03.72-.04.24,0,.48,0,.72,0,.06,0,.12.02.18.03.06,0,.12,0,.18.03.07.02.16,0,.24,0,.07,0,.15-.02.22.02.06.04.15-.02.21.04,0,0,.02,0,.03,0,.11-.02.21.03.32.03.1,0,.2.05.29.06.13,0,.26.05.39.07.12.02.25.05.37.07.09.01.17.05.26.07.09.03.18.03.27.07.08.04.17.07.27.08.05,0,.1.05.15.06.08,0,.15.04.23.04.06,0,.12.06.19.09.06.03.13.04.19.03.16-.02.31.05.46.08.1.02.2.09.3.02.16.01.32,0,.48.03.17.03.34.07.51.13.18.06.35.15.53.23.27.12.52.28.78.42.23.13.45.29.66.45.28.22.51.49.7.78.18.27.36.55.54.82.12.17.25.43.32.64.01.04.02.08.02.12.02.12.11.2.17.3.18.25.37.5.52.77.07.13.17.24.23.37.05.1.12.2.18.29.19.33.37.66.55.99.12.22.2.46.33.68.02.14.12.24.15.37.04.13.11.24.16.36.07.18.14.36.21.54.12.36.24.72.36,1.08.06.18.12.36.16.54.05.23.12.46.18.69.02.06,0,.12.03.18.03.08.02.17.04.26.02.08,0,.18.04.25.04.08-.02.18.05.25,0,0,0,.01,0,.02.01.13.01.27.03.4.04.21,0,.42.04.63.04.22.04.44.02.66-.02.24-.02.47-.02.71,0,.07-.05.12-.03.19.01.06,0,.13-.02.2-.03.12-.02.26-.04.38-.02.1-.02.2-.06.3-.02.06-.02.13-.03.19-.05.22-.06.46-.16.67,0,.12-.07.22-.09.33-.02.11-.06.22-.1.33-.03.1-.06.2-.1.3-.04.1-.09.19-.13.28-.13.29-.27.57-.42.85-.08.15-.17.29-.25.44-.11.22-.25.42-.36.63-.07.14-.17.27-.26.4-.16.23-.33.45-.51.67-.13.16-.26.31-.39.46-.1.11-.19.23-.3.32-.15.13-.29.28-.44.41-.18.16-.36.31-.55.45-.11.09-.23.18-.36.26-.19.13-.39.27-.59.39-.08.05-.16.09-.25.14-.21.12-.43.25-.66.35-.23.1-.46.23-.7.31-.14.05-.27.13-.42.14-.16.1-.34.13-.51.2-.1.04-.19.02-.29.02-.03,0-.06-.03-.08-.02-.03.01-.06.04-.08.07-.07.12-.14.25-.22.37-.17.28-.31.57-.45.87-.11.23-.22.46-.31.71-.04.12-.11.23-.16.35-.05.11-.12.22-.15.34-.04.12-.1.22-.14.34-.03.12-.1.22-.15.34-.18.41-.37.82-.58,1.22-.16.32-.34.62-.54.91-.11.15-.23.3-.35.45-.13.16-.27.3-.41.43-.24.23-.49.43-.77.6-.15.09-.3.18-.45.25-.24.11-.48.21-.74.26-.1.02-.2.04-.29.07-.1.02-.2.02-.31.03-.05,0-.1,0-.15.02-.06.02-.14.03-.21-.01-.03-.02-.07-.01-.11,0-.15.02-.3-.04-.45-.03-.32-.09-.64-.14-.94-.27-.2-.09-.41-.17-.61-.27-.17-.09-.33-.2-.5-.3-.2-.12-.41-.24-.61-.38-.12-.08-.26-.11-.36-.21-.17-.05-.32-.14-.49-.2-.11-.04-.21-.08-.31-.14-.1-.06-.21-.08-.31-.14-.02-.01-.06-.01-.08,0-.06.05-.13,0-.18.03-.06.03-.12.02-.18.03-.15.04-.31,0-.47.04-.16.03-.32.03-.48.02-.22,0-.45-.05-.67-.03-.12-.05-.25,0-.37-.04-.21-.05-.42-.02-.63-.03-.07,0-.13-.05-.21-.04-.07.01-.14,0-.21,0Zm4.52-.31c.1.04.18.06.25.1.26.14.53.27.77.44.19.13.39.25.58.37.11.07.23.12.34.18.1.05.19.1.3.13.08.03.15.06.24.09.19.06.37.13.57.16.11.02.21.05.33.06.12,0,.23.04.35.03.1,0,.2.03.28,0,.09-.04.2.02.28-.06.09,0,.17-.03.25-.05.26-.08.49-.19.73-.33.3-.18.57-.39.83-.62.11-.09.19-.21.29-.31.12-.13.22-.26.32-.4.16-.23.3-.47.43-.71.1-.2.21-.39.3-.59.09-.21.19-.41.28-.62.09-.23.2-.45.31-.67.04-.09.08-.17.11-.26.07-.2.17-.4.25-.6.1-.24.21-.48.33-.71.13-.27.26-.55.42-.8.12-.19.22-.38.34-.56.07-.1.15-.2.22-.29.12-.16.24-.33.37-.49.13-.15.28-.29.43-.43.06-.06.12-.09.21-.08.03,0,.05,0,.08,0,.1,0,.18.01.23.11.01.03.04.05.07.07,0,.05,0,.1,0,.14,0,.07-.02.13-.07.18-.12.13-.23.25-.36.4.05,0,.08,0,.1-.01.2-.1.39-.2.6-.28.15-.06.28-.14.43-.2.22-.1.45-.21.66-.34.21-.12.41-.25.61-.38.14-.1.29-.19.41-.31.02-.02.04-.04.05-.06.03-.11.08-.23.09-.34.02-.12,0-.24.03-.35.03-.14.01-.3,0-.45,0-.14.01-.29-.03-.44-.03-.11,0-.23-.04-.34-.02-.05,0-.11-.02-.15-.03-.05,0-.1-.02-.15,0-.05-.02-.1-.03-.15-.01-.04-.02-.09-.03-.13,0-.04,0-.09-.02-.13-.05-.15-.08-.31-.1-.47-.01-.08-.04-.15-.06-.23-.04-.15-.1-.28-.11-.44,0-.05-.02-.11-.04-.16-.03-.08-.06-.16-.08-.24-.02-.08,0-.18-.07-.24,0,0,0-.03,0-.05,0-.08-.03-.16-.05-.24-.05-.21-.12-.41-.11-.62,0-.03,0-.05,0-.08-.04-.11-.04-.22.02-.32h.17s0,.04.01.05c.11.11.15.27.25.39.02.02.03.05.03.08.03.2.15.38.17.59.08.11.07.25.11.37.06.16.1.33.14.5,0,.04.02.09.03.13.02.1.04.19.07.31.07-.15.11-.28.15-.41.03-.09.07-.17.09-.26.03-.11.06-.21.1-.31.06-.14.13-.27.17-.41.03-.1.11-.17.14-.26.05-.14.11-.27.18-.4.06-.11.12-.23.2-.33.03-.03.03-.1.06-.11.09-.03.12-.12.2-.16.01,0,.03,0,.05,0,.09,0,.12.02.11.11,0,.14.05.29-.06.42,0,0,0,.02,0,.03.01.08-.03.13-.06.2-.1.21-.21.41-.32.6-.1.17-.16.35-.27.51-.13.21-.25.42-.38.63-.04.07-.1.14-.16.2-.05.05-.12.05-.19.05.02.13.09.24.07.37.06.12.06.25.09.38.03.12.03.26.04.38,0,.02,0,.05,0,.06.05.05.04.12.03.18,0,.07.04.13.03.19,0,.07-.07.13,0,.2,0,.01-.03.05-.02.08.02.12.02.12,0,.25,0,.04-.02.08.02.12.01.02.02.06.01.07-.04.03-.03.08-.03.12,0,.09.01.17-.03.26-.02.03,0,.08,0,.14.04-.03.06-.04.08-.06.24-.24.48-.48.72-.72.02-.02.04-.03.06-.06.1-.16.23-.29.34-.43.12-.15.23-.3.33-.46.12-.17.22-.35.34-.53.17-.26.32-.53.47-.8.13-.24.26-.49.36-.74.09-.22.19-.42.26-.64.06-.18.13-.36.17-.54.06-.26.14-.52.16-.8.05-.06,0-.15.04-.21.03-.06.02-.11.03-.17,0-.05.03-.11.03-.16,0-.09.01-.18.03-.28.03-.15.02-.31.03-.47.02-.22.01-.45,0-.67,0-.22.02-.45-.03-.68-.03-.13,0-.28-.03-.42-.02-.08.01-.16-.03-.24-.03-.07,0-.16-.03-.24-.03-.08-.02-.18-.04-.27-.02-.09-.04-.18-.06-.26-.02-.09-.04-.18-.06-.28-.02-.1-.04-.2-.07-.29-.03-.12-.07-.24-.1-.36-.03-.12-.06-.24-.1-.36-.02-.05-.02-.1-.03-.15-.02-.08-.05-.15-.09-.27-.03.08-.05.11-.07.16-.07.2-.12.41-.22.6-.11.21-.21.43-.35.62-.06.08-.13.16-.19.24-.12.19-.26.35-.41.5-.11.11-.23.22-.35.32-.12.1-.24.2-.36.29-.19.14-.39.26-.6.37-.1.05-.21.09-.31.15-.04.02-.08.05-.14.05-.06,0-.12.05-.18.07-.15.06-.31.11-.47.15-.11.03-.21.07-.32.09-.15.03-.3.08-.47.07-.04,0-.09-.02-.11,0-.07.05-.15.02-.23.03-.08.01-.16.03-.24.03-.11,0-.21,0-.32,0-.11.01-.21-.04-.32-.04-.16,0-.31-.02-.47-.03,0,0-.01,0-.02,0-.13-.06-.28-.06-.43-.09-.12-.02-.23-.06-.35-.08-.09-.01-.18-.07-.27-.09-.09-.02-.18-.08-.28-.07-.23-.11-.47-.17-.7-.28-.12-.06-.24-.12-.36-.16-.25-.09-.46-.24-.69-.35-.13-.07-.26-.15-.38-.23-.22-.13-.43-.28-.63-.44-.12-.09-.22-.2-.35-.28-.19-.12-.35-.27-.51-.42-.36-.33-.7-.68-1.02-1.05,0,0-.02-.01-.02-.02-.11-.17-.26-.3-.37-.47-.11-.16-.24-.29-.34-.45-.09-.14-.2-.28-.28-.42-.12-.21-.26-.41-.37-.63-.1-.2-.21-.4-.29-.62-.07-.18-.14-.36-.19-.55-.04-.17-.09-.35-.12-.52-.02-.07,0-.15-.03-.21-.04-.08,0-.16-.03-.23-.05-.08-.02-.16-.03-.25,0-.08,0-.16,0-.24,0-.03,0-.06-.01-.07-.04-.05-.03-.12-.02-.17.04-.1.03-.2.02-.29-.01-.18.04-.35.03-.53,0,0,0-.01,0-.02.06-.16.05-.34.09-.5.03-.12.08-.24.07-.37.08-.16.1-.34.16-.51.1-.27.19-.54.32-.8.06-.12.12-.23.18-.34.12-.2.24-.39.4-.55.11-.12.23-.24.37-.34.18-.13.38-.23.59-.32.09-.04.2-.05.31-.13-.2.03-.37,0-.55.03-.17.03-.35,0-.53.04-.08.02-.18-.02-.26.03-.17,0-.33.04-.5.06-.09.01-.17.02-.25.04-.15.04-.31.08-.46.12-.14.04-.28.07-.42.12-.19.06-.38.12-.57.2-.17.07-.34.13-.5.21-.22.1-.44.21-.64.34-.08.05-.18.08-.24.14-.12.11-.28.15-.38.28-.21.11-.38.27-.56.41-.15.12-.29.23-.43.36-.21.19-.39.4-.61.58-.05.04-.09.11-.14.17-.24.24-.46.48-.68.74-.13.15-.24.31-.38.45-.06.06-.11.12-.16.19-.07.12-.16.22-.24.33-.09.13-.18.26-.27.38,0,0,0,.02,0,.03.19-.15.37-.32.58-.45.19-.12.39-.19.59-.28.06-.03.13-.03.19-.04.07-.02.13-.05.2-.05.07,0,.13-.03.19-.04.05,0,.1-.03.15-.03.09,0,.18-.06.27-.03.07-.06.16,0,.22-.04.08-.04.16-.01.24-.03.03,0,.07-.01.1-.02.01,0,.04-.02.04-.01.06.06.13.02.19.03.01-.01.02-.02.03-.03.06-.08.14-.16.18-.25.05-.11.16-.14.2-.25.02-.04.06-.09.12-.09.03,0,.05-.03.07-.05.07-.07.16-.12.25-.17.16-.08.32-.16.5-.19.11-.02.17,0,.18.11,0,.02,0,.04,0,.07-.11.09-.17.23-.3.3-.08.05-.15.12-.21.18-.02.02-.04.03-.06.04-.11.1-.24.17-.32.28.03.08.1.09.14.06.05-.03.1-.02.15-.03.03,0,.06,0,.1,0,.11.01.22-.03.32.03.04-.05.09,0,.13,0,.07,0,.08.02.09.1,0,.03,0,.05,0,.06-.1.15-.24.2-.38.26-.12.05-.25.1-.38.11-.1.01-.21,0-.32,0-.11,0-.22.03-.32-.03-.02,0-.05.01-.07.02-.19.06-.32.06-.44,0-.01,0-.05-.01-.05,0-.05.05-.1.02-.15.02-.08,0-.18-.02-.25,0-.06.02-.12,0-.16.03-.06.05-.12.02-.18.03-.02,0-.04,0-.06.01-.11.02-.21.05-.32.08-.18.05-.35.11-.52.18-.09.04-.16.11-.25.14-.09.03-.17.07-.23.13-.1.08-.22.13-.31.23-.08.08-.18.13-.28.21.03.02.06.03.07.03v.11c-.08.02-.15.07-.23.07-.12,0-.16,0-.24-.03-.06.11-.13.21-.19.32-.1.21-.21.41-.3.63-.11.26-.24.52-.34.79-.07.18-.15.36-.13.55.01.1-.04.18-.09.25-.02.02-.04.04-.06.06-.07.06-.12.12-.15.21-.02.08-.09.12-.16.13-.07.01-.11.05-.14.11-.02.04-.04.08-.06.12-.03.1-.07.19-.19.22-.02,0-.07.04-.03.09.15-.04.31-.1.47-.13.18-.03.36-.06.53-.06.26,0,.51-.06.77-.04.15.01.3-.05.45-.03,0,0,.01,0,.02,0,.04-.07.08-.01.12,0,.03.01.06.03.09.05.09.05.12.13.12.22,0,.12-.1.23-.22.28-.11.04-.22.06-.33.1-.1.03-.19.05-.29.06-.17.01-.34.02-.51.03,0,0-.01,0-.02,0-.1.07-.23,0-.34.06-.08.04-.18.01-.27.04-.15.05-.45.14-.68.28-.26.16-.51.33-.73.55-.02.02-.06.04-.08.06-.04.03-.08.06-.1.1-.04.08-.12.13-.17.2-.06.07-.12.14-.17.22-.11.16-.2.33-.28.51-.12.27-.17.56-.23.85-.02.08-.03.17-.04.26,0,.09-.01.17-.03.26-.02.12-.01.25,0,.37.01.13-.04.25-.04.37,0,.22.05.44.03.66,0,.12,0,.24,0,.37,0,.03,0,.07,0,.09.03.07.04.12,0,.19-.01.02,0,.05,0,.08.08-.05.14-.09.21-.14.02-.01.03-.03.05-.04.05-.05.12-.08.16-.14.04-.06.05-.13.07-.19,0,0,0-.02.01-.03.1-.21.15-.45.24-.67.06-.14.1-.29.15-.43.08-.23.14-.46.2-.7.05-.2.08-.4.13-.6.08-.35.26-.66.43-.85.15-.16.3-.33.48-.46.16-.12.32-.23.5-.3.11-.05.23-.09.35-.12.09-.02.19-.04.28-.06.1-.02.2-.01.3,0,.04,0,.07.02.11,0,.02-.01.06-.02.07,0,.03.04.08.02.12.03.04,0,.08.03.11.03.11,0,.2.05.29.1.04.02.07.06.1.09.05.08.05.18.06.28.01.07-.05.11-.11.14-.04.02-.09.02-.13.04-.06.04-.12.03-.17,0-.09-.03-.17-.06-.27-.05-.15.01-.3,0-.45.03-.14.03-.28.07-.41.13-.16.07-.3.17-.42.3-.11.12-.22.23-.31.37-.09.13-.15.27-.21.42.04.02.08.04.11.07.03.02.07.04.08.06.08.15.17.3.21.47.03.14.06.27.1.41.03.11.07.23.1.34.16-.04.3-.09.44-.12.13-.03.25-.08.38-.08.04,0,.08-.02.11-.03.04,0,.09,0,.13,0,.11-.04.23-.04.34-.06.09-.01.18,0,.27,0,.16,0,.3.11.35.26.04.13-.04.31-.16.38-.11.07-.24.08-.36.09-.13.02-.27,0-.4.04-.15.03-.29.06-.44.09-.1.02-.2.06-.3.09-.18.05-.36.1-.52.2-.14.01-.25.13-.38.16-.17.14-.38.2-.54.35-.28.14-.52.34-.78.52-.1.07-.18.15-.28.21-.18.11-.33.24-.48.37-.17.14-.32.3-.46.48-.11.15-.22.31-.31.48-.09.16-.15.33-.22.5-.09.2-.13.4-.2.6-.02.07-.01.14-.04.21-.03.07-.02.14-.05.2-.03.06,0,.14-.04.21,0,.15-.04.3-.03.45.01.2,0,.4,0,.61,0,.08,0,.16.02.24.02.08.04.17.04.26,0,.09.05.17.06.26.02.21.1.4.15.6.05.24.13.47.18.71.04.21.08.41.12.62.03.16.03.32.03.48,0,.13,0,.26,0,.38,0,.15,0,.31,0,.46,0,.15-.02.3-.03.45,0,.02,0,.04,0,.05-.06.05-.02.12-.03.18-.01.06-.03.12-.03.18,0,.09-.06.18-.03.27-.06.11-.05.24-.09.36-.06.18-.08.37-.14.55-.1.28-.2.56-.34.83-.11.22-.22.44-.35.65-.07.11-.14.23-.23.33-.13.14-.23.31-.37.44-.24.22-.44.47-.7.67-.07.06-.13.13-.19.21-.06.09-.15.15-.24.23.04,0,.06,0,.09,0,.26.02.51-.06.78-.03.05-.08.09-.16.13-.24.06-.11.1-.24.18-.34.11-.14.26-.24.39-.36.12-.1.26-.16.33-.31.02-.04.06-.08.13-.08.06,0,.11-.03.16-.06.05-.03.1-.07.15-.11.04-.04.08-.08.13-.12.05-.04.12-.07.14-.12.07-.13.21-.19.26-.32.15-.13.23-.31.33-.47.12-.21.23-.44.31-.67.05-.14.11-.28.14-.42.04-.15.06-.3.1-.46.03-.15.05-.3.06-.45,0-.18.05-.35.04-.53-.02-.58.02-1.16-.03-1.75-.03-.33-.01-.66,0-.99,0-.33-.03-.66.03-.99-.02-.16.04-.31.03-.47,0-.01,0-.02,0-.03.06-.08,0-.18.06-.26-.02-.15.06-.28.07-.42,0-.08.04-.17.06-.26.02-.09.06-.18.09-.27.06-.17.12-.35.19-.51.1-.2.2-.41.31-.61.17-.28.36-.56.59-.79.24-.24.47-.49.73-.7.1-.08.21-.16.32-.23.14-.09.27-.19.41-.28.16-.1.34-.15.53-.07.07.03.14.03.21,0,.03-.01.06-.02.1-.03.13-.04.28.05.31.18,0,.02,0,.05-.02.07-.04.1-.12.16-.22.22.37.6.82,1.13,1.27,1.66.15-.09.22-.25.31-.38.11-.15.2-.31.29-.47.08-.15.2-.29.26-.45.02-.05.03-.11.06-.15.05-.06.07-.13.1-.2.13-.27.23-.56.31-.85.04-.15.08-.31.12-.46.01-.05.04-.09.04-.15,0-.04.02-.08.03-.11,0-.04,0-.09,0-.12.03-.08.04-.17.05-.25.03-.12.03-.24.07-.35.02-.05.02-.09.02-.13,0-.04,0-.08.02-.12.03-.1.05-.19.07-.29.01-.06,0-.14.04-.19.04-.06.04-.13.06-.2.08-.23.16-.46.27-.67.04-.08.07-.16.12-.24.05-.07.09-.15.14-.21.08-.09.15-.19.26-.26.22-.16.38-.23.67-.14.08.03.14.06.17.14.01.03.03.06.04.08-.04.06-.05.13-.13.14-.12.02-.22.08-.32.15-.03.02-.07.04-.1.07-.03.03-.05.08-.08.11-.15.16-.24.35-.32.55-.06.14-.11.29-.15.43-.05.18-.11.37-.13.55-.02.14-.05.27-.06.4-.01.18-.08.36-.07.55,0,.02-.01.04-.02.06,0,.04,0,.08-.02.15.06-.06.09-.11.14-.14.28-.19.58-.3.93-.27.14.01.27.2.18.35-.07.11-.17.21-.29.25-.18.07-.35.15-.5.27-.12.1-.24.22-.33.34-.07.08-.12.18-.2.25-.08.08-.17.16-.25.25-.03.03-.04.07-.07.1-.08.07-.07.18-.13.25-.12.17-.18.36-.3.53-.1.14-.18.29-.29.42-.07.08-.14.16-.2.25-.1.13-.24.22-.34.35-.03.04-.07.07-.1.09-.08.06-.09.08-.03.15.13.17.27.34.35.54.02.05.05.09.08.14.02,0,.03-.01.04-.02.1-.11.21-.22.3-.34.04-.05.07-.11.11-.16.15-.19.26-.41.37-.63.05-.11.14-.17.25-.19.02,0,.05-.04.07-.03.08.04.2.05.24.15.03.09.11.17.04.28-.02.04-.03.1-.04.16-.02.16-.1.3-.18.44-.13.2-.26.4-.42.58-.25.28-.53.54-.9.67-.13.05-.26.09-.39.09-.18,0-.34.06-.49.13-.16.08-.3.18-.44.29-.17.14-.33.35-.5.59-.15.22-.29.44-.38.69-.04.12-.1.23-.13.35-.06.24-.11.49-.16.73-.02.12-.04.24-.07.36-.05.18-.07.36-.12.54-.04.17-.07.36-.1.53-.03.18-.1.35-.1.54-.07.15-.08.32-.12.48-.05.18-.1.36-.16.54-.06.19-.13.38-.2.57-.08.23-.18.45-.28.67-.1.23-.23.44-.37.65-.14.21-.27.42-.46.59-.02.01-.03.03-.04.05-.09.16-.23.28-.37.39-.15.13-.3.27-.46.38-.11.08-.22.17-.33.24-.19.13-.39.24-.58.36-.18.11-.38.18-.56.27-.13.07-.28.09-.42.13-.15.05-.31.08-.46.09-.17.01-.33.04-.5.04-.19,0-.38,0-.58,0-.19,0-.39-.02-.58.03-.13.03-.28,0-.42.03-.11.03-.23,0-.34.04-.07.02-.13.01-.19.03-.1.03-.21.07-.32.09-.18.03-.35.1-.53.15-.15.04-.3.11-.44.17-.18.07-.35.15-.51.24-.26.15-.49.36-.71.57-.08.08-.14.16-.22.25-.01.02-.05.02-.04.05.06,0,.12,0,.16-.03.26-.11.54-.12.8-.19.07-.02.14,0,.21-.03.07-.03.15.01.22-.04.17,0,.33-.01.5-.03.13-.01.26-.02.39.03.18-.02.35.04.53.03.06,0,.11.02.15.06.06.05.14.1.14.2.06,0,.12,0,.18,0,.06,0,.11-.04.17-.05.12-.03.23-.05.35-.07.09-.02.18,0,.26-.04.14-.06.29-.04.43-.09.06-.02.13-.03.19-.03.09,0,.18-.06.27-.03.13-.07.28-.06.42-.09.13-.03.25-.06.39-.08.12-.01.24-.06.36-.09.12-.03.24-.06.36-.1.26-.08.53-.17.77-.29.33-.16.67-.32.98-.54.27-.19.55-.37.79-.59.27-.24.52-.5.74-.79.15-.2.4-.61.51-.83.09-.17.17-.33.24-.51.05-.13.11-.26.15-.4.04-.14.1-.27.14-.4.07-.21.15-.42.2-.64.04-.15.07-.29.11-.43.05-.19.09-.38.15-.56.04-.15.07-.3.12-.45.03-.13.07-.26.11-.39.05-.18.1-.36.16-.54.07-.22.15-.44.22-.66.07-.2.14-.4.24-.59.15-.31.31-.62.53-.9.12-.15.24-.31.37-.45.12-.13.28-.23.41-.35.18-.16.39-.27.6-.37.08-.04.18-.06.27-.08.13.06.28.07.4.14.2.11.39.24.58.36.14.09.27.21.42.29.2.1.38.23.58.34.18.1.38.18.55.3.06.04.14.06.2.09.23.11.45.24.7.32.04.01.08.01.13.02,0-.15,0-.29,0-.42,0-.13.03-.27.03-.4,0-.15.06-.3.03-.45,0,0,0-.01,0-.02.06-.06,0-.15.04-.21.04-.07.01-.14.02-.22.01-.09,0-.18.04-.25.04-.06.01-.12.04-.18.06-.18.14-.36.25-.52.1-.15.22-.28.37-.39.08-.06.17-.09.25-.14.08-.05.18-.09.26-.13.14-.07.29-.1.43-.15.15-.05.29-.09.44-.14.11-.04.22-.06.32-.12.08-.05.08-.05.05-.13-.04-.14-.08-.28-.11-.42-.02-.12-.02-.25-.03-.37,0-.01,0-.02,0-.03-.06-.07-.01-.14,0-.22.02-.09.1-.12.14-.18.07.02.13-.08.2,0,.11-.02.14.08.2.14.1.09.13.2.14.33,0,.07,0,.14,0,.21,0,.04.04.07.03.11-.03.08-.02.17-.06.25-.01.02,0,.05,0,.08.07-.02.12-.04.18-.07.22-.11.41-.25.64-.35.05-.02.09-.06.13-.1.07-.07.17-.12.24-.18.13-.12.3-.2.37-.38.03-.06.09-.08.15-.09.06,0,.12,0,.18.03.07.02.13.04.16.1.03.05.06.12.05.19,0,.13-.05.26-.14.35-.11.12-.24.22-.36.33-.06.05-.11.11-.18.14-.13.06-.25.14-.37.23-.2.16-.45.24-.66.38-.11.07-.24.12-.36.17-.2.08-.41.15-.61.22-.17.06-.35.11-.53.16-.11.03-.21.08-.32.12-.1.04-.21.05-.29.11-.19.13-.37.28-.45.51-.03.08-.04.17-.06.25-.06.23-.1.45-.12.69,0,.04.01.08,0,.11-.03.06-.04.13-.03.2,0,.07-.02.13-.03.19-.01.07.01.14-.02.21-.03.06-.01.15-.04.22-.04.14-.07.28-.1.42,0,.03-.05.04,0,.09.03.03.04.07.09.08,0-.02,0-.05.02-.05.08-.03.12-.1.18-.15.06-.05.12-.1.18-.15.07-.06.16-.11.24-.15.09-.04.15-.11.25-.13.12-.03.2,0,.3.06v.28c-.12.12-.24.25-.36.38,0,.01-.01.03-.02.04-.08.09-.15.18-.23.27-.01.01-.02.03-.03.03-.16.07-.24.23-.34.35-.09.11-.16.24-.25.36-.14.17-.24.36-.36.54-.16.23-.28.49-.42.74-.07.12-.13.25-.21.36-.13.18-.25.38-.39.56-.12.15-.23.31-.37.45-.11.11-.22.22-.33.33-.11.11-.25.19-.38.29-.12.1-.26.16-.4.24-.1.06-.21.11-.32.15-.2.07-.4.14-.62.16-.06.06-.15,0-.21.04-.08.03-.15.03-.23.03-.2,0-.39,0-.59,0-.2,0-.4.02-.6-.03-.16-.03-.32,0-.48-.03-.14-.03-.3,0-.45,0-.15,0-.29-.05-.43-.03-.07,0-.15-.01-.24-.02-.06.13-.14.25-.18.39-.03.09-.08.16-.1.25-.03.09-.08.17-.12.25-.02.03-.03.07-.05.12.11,0,.21,0,.3,0,.1-.01.19.03.29.03.12,0,.25-.02.37.03.23-.02.45.04.67.03.2-.01.41.02.61-.03.11-.03.22-.01.34-.03.14-.02.27-.04.4-.07.14-.03.29-.06.42-.15.09-.06.18-.12.27-.16.12-.05.17-.14.2-.25.02-.06.05-.08.1-.11.13-.08.28-.06.42-.06.07.06.16.02.24.03.09.01.16-.05.24-.09.06-.03.12-.07.18-.1.26-.13.49-.3.7-.5.27-.25.54-.51.76-.82.12-.17.26-.31.38-.48.15-.22.3-.43.45-.65.16-.24.33-.47.49-.71.1-.14.21-.28.31-.42.11-.16.25-.3.37-.45.07-.09.15-.17.25-.23.06-.04.11-.09.17-.13.09-.06.19-.12.3-.12.13,0,.27-.02.4.03.18.06.37.11.56.15.16.04.32.09.48.11.07,0,.14.02.21.04.11.04.21.09.31.14.06.03.1.05.2.04.01,0,.03,0,.03,0,.05.04.12.06.15.13.04.1.04.2,0,.3-.07.2-.21.36-.3.55-.11.26-.23.52-.31.8-.03.11-.07.23-.1.34-.06.2-.1.41-.16.61-.09.29-.19.57-.32.84-.17.33-.36.65-.64.9-.12.11-.22.22-.35.32-.14.11-.28.22-.44.3-.15.08-.3.15-.45.21-.15.06-.31.1-.47.15-.08.02-.16,0-.22.03-.06.03-.12.01-.18.02-.06.01-.12.04-.19.03-.18-.02-.35.02-.53-.03-.06-.02-.15.02-.2,0-.06-.04-.13,0-.19-.04-.05-.04-.13.01-.19-.05-.25-.04-.48-.12-.72-.2-.21-.07-.42-.15-.63-.21-.08-.02-.17-.02-.24,0-.21.09-.41.19-.65.31Zm14.47-22.43c-.06.05-.11.09-.14.14-.01.02-.02.05-.04.06-.1.07-.21.14-.31.22-.03.02-.06.05-.06.08,0,.08,0,.16-.03.24-.03.1-.02.21-.04.3-.02.08,0,.16-.03.22-.06.13-.06.26-.09.4-.04.15-.07.3-.1.45,0,.03-.03.06-.03.08.02.14-.09.25-.07.39-.05.03-.01.09-.03.13-.08.17-.1.36-.15.54-.03.11-.07.14-.2.09.02-.11.03-.23.06-.34.02-.11.07-.22.07-.34,0-.15.09-.28.07-.44.08-.17.05-.37.13-.54-.01-.16.07-.3.07-.45,0-.04.02-.08.03-.11,0-.04-.01-.09.01-.12.05-.06,0-.14.03-.19.04-.07.01-.13.02-.2-.11-.02-.21.01-.29.05-.1.04-.2.05-.31.07-.12.02-.25.01-.36.05-.05.15-.07.3-.1.44-.03.16-.08.31-.12.47-.03.16-.1.31-.14.47-.03.12-.06.25-.11.37-.04.12-.07.25-.12.37-.08.22-.15.44-.23.65-.12-.01-.13-.02-.13-.1,0-.03,0-.06.02-.09.03-.05,0-.11.05-.16.01-.19.09-.36.13-.54.03-.12.04-.23.09-.35.02-.05.02-.12.05-.17.04-.06-.02-.13.04-.18,0-.09.05-.17.07-.26.02-.09,0-.19.04-.25.06-.08.03-.18.08-.26.02-.03.02-.08.02-.12,0-.1.07-.2.04-.31-.36-.03-.72-.05-1.07-.17-.02.04-.06.07-.06.11-.01.08-.06.14-.08.21-.03.07-.07.13-.08.2-.01.08-.09.12-.1.2-.01.07-.05.13-.08.19-.04.07-.09.13-.12.21-.03.07-.12.13-.12.22-.1.13-.18.28-.26.42-.09.16-.19.33-.29.49-.09.13-.08.14-.24.11-.01-.1.04-.19.08-.27.11-.22.23-.45.35-.67.06-.12.12-.25.18-.37.06-.13.13-.26.19-.38.08-.16.14-.32.23-.46.05-.09.06-.18.1-.26-.03-.02-.06-.04-.1-.05-.23-.06-.43-.17-.64-.26-.06-.03-.12-.07-.18-.1-.08-.04-.09-.04-.14.03-.07.1-.12.22-.19.32-.05.07-.09.14-.13.22-.07.14-.18.24-.25.37-.05.09-.11.17-.16.25-.08.13-.18.24-.26.37-.05.07-.1.14-.15.21-.06.1-.14.19-.21.28-.03.04-.1.04-.14.01-.03-.03-.04-.1-.02-.14.09-.16.2-.31.28-.47.05-.1.14-.19.19-.29.05-.1.13-.19.18-.29.04-.08.07-.18.16-.24.02-.1.09-.18.14-.26.02-.04.08-.06.06-.12.06-.05.07-.14.12-.19.06-.06.09-.13.11-.21.02-.09.03-.09-.04-.13-.17-.11-.34-.23-.49-.37-.09-.08-.19-.16-.28-.24,0,0-.02,0-.03.01-.1.16-.24.29-.35.44-.07.1-.2.16-.25.27-.06.12-.22.13-.24.26-.21.12-.33.33-.53.47-.1.07-.18.17-.28.25-.15.12-.29.26-.43.39,0,0-.02.01-.03.02-.04,0-.09,0-.13,0v-.15s.04,0,.05-.01c.03-.03.05-.07.08-.11.04-.04.08-.08.12-.12.06-.06.13-.13.19-.19.06-.06.14-.11.2-.18.06-.06.11-.13.17-.2.05-.05.1-.1.15-.15.05-.05.1-.1.15-.15.05-.05.09-.09.14-.14.05-.05.11-.09.14-.15.03-.07.1-.08.14-.13.1-.15.23-.26.35-.38.07-.08.14-.16.21-.24-.21-.24-.41-.48-.58-.74-.08-.01-.12.08-.2.08-.07.09-.18.13-.27.2-.23.17-.46.34-.68.53-.03.03-.08.03-.09.09-.01.04-.08.06-.12.09-.02.02-.06.03-.08.05-.17.16-.33.34-.52.49-.12.1-.23.21-.35.31-.04.04-.08.04-.12,0-.06-.05-.07-.09-.03-.13.13-.15.24-.32.39-.46.04-.03.08-.06.09-.1.02-.05.08-.05.11-.1.05-.1.15-.16.22-.24.05-.06.11-.12.18-.16.06-.04.1-.12.15-.17.07-.07.17-.11.24-.19.07-.08.18-.09.25-.17.06-.06.15-.09.21-.14.05-.03.09-.06.14-.09.1-.05.19-.1.3-.15-.1-.15-.14-.33-.25-.46-.12.02-.2.1-.31.1-.04,0-.09.05-.13.06-.11.03-.2.1-.31.15-.14.06-.29.11-.42.19-.07.05-.15.07-.23.11-.08.04-.15.07-.22.12-.07.04-.15.08-.22.14-.08.06-.19.09-.27.15-.08.06-.19.09-.27.17,0,0-.01,0-.02,0-.2.11-.39.21-.58.32-.11-.11-.11-.13,0-.22.01-.01.02-.03.03-.03.15-.06.25-.18.39-.27.13-.08.25-.17.37-.27.1-.08.23-.15.34-.22.08-.05.16-.1.24-.15.08-.05.17-.09.25-.13.11-.05.21-.12.32-.16.06-.03.12-.08.19-.09.08-.01.12-.11.21-.07.18-.09.37-.12.56-.17-.08-.3-.15-.6-.16-.91-.05-.01-.1-.01-.15.02-.08.06-.19.05-.25.13-.06,0-.1.03-.15.06-.04.02-.1.05-.14.04-.08-.02-.09.06-.15.07-.12.03-.23.08-.35.12-.06.02-.11.03-.17.07-.05.03-.12.05-.18.06-.07.01-.14.04-.21.07-.06.03-.14.05-.21.07-.17.04-.34.08-.49.16-.05.03-.11.04-.16.03-.04-.01-.07-.05-.11-.08.04-.05.04-.12.1-.14.1-.03.2-.07.29-.11.09-.05.2-.05.28-.12,0,0,.01-.02.02-.02.16-.03.3-.11.44-.18.03-.02.06-.04.09-.04.1,0,.19-.05.28-.1.02-.01.04-.03.07-.03.13,0,.23-.09.35-.12.14-.04.27-.12.42-.15.13-.04.26-.1.37-.14.03-.19.05-.37.08-.54.01-.08-.02-.12-.08-.09-.05.03-.09.02-.13.03-.17.01-.34-.01-.52.03-.14.03-.3,0-.45.03-.11.02-.22,0-.34.03-.2.03-.42.03-.62.04-.04,0-.09-.01-.13,0-.1.05-.2.02-.29.03-.05,0-.08-.02-.1-.08.03-.02.05-.04.08-.05.05-.02.11-.03.16-.03.06,0,.12,0,.18-.03.07-.03.15,0,.23-.03.07-.02.16-.02.24-.03.15-.02.3-.03.45-.04.02,0,.03,0,.05,0,.15-.06.31-.05.46-.09.1-.03.21-.01.32-.03.18-.03.37-.03.56-.04,0,0,0,0,.03,0,.1-.21.22-.41.38-.59-.06-.02-.11-.04-.17-.05-.06,0-.12.01-.17-.01-.05-.03-.1-.02-.15-.02-.06,0-.11-.03-.16-.03-.14-.01-.29,0-.44-.03-.16-.03-.32.02-.48-.04-.24.02-.48-.03-.72-.03-.05,0-.08,0-.1-.05.03-.05.08-.05.12-.05.19,0,.37,0,.56,0,.19-.01.37.04.56.03.11,0,.22-.02.32,0,.07.02.13.02.2.03.07,0,.13.02.19.03.09.01.18,0,.26.04.07.04.16,0,.22.06.05-.01.11.02.17-.02.1-.08.23-.12.35-.17.02,0,.05,0,.07-.03.08-.09.15-.18.24-.28-.06-.02-.1-.03-.14-.05-.19-.09-.4-.1-.61-.16-.12-.03-.25-.05-.38-.09-.08-.02-.18-.02-.28.01-.14.05-.29.05-.43.07-.09.02-.19,0-.27.04-.14.05-.29.05-.43.09-.12.03-.24.05-.36.07-.2.03-.39.09-.59.13-.15.03-.27.1-.4.15-.13.05-.24.15-.35.24-.08.07-.14.15-.21.23-.14.17-.25.35-.35.54-.1.17-.17.36-.24.54-.06.15-.11.31-.15.47-.02.1-.05.2-.08.3-.05.16-.07.33-.11.5-.03.14-.02.28-.06.42-.02.07,0,.16,0,.24,0,.08-.03.15-.03.23,0,.16-.01.32.03.48.03.12,0,.26.03.39.03.09.01.2.04.29.02.06,0,.13.03.18.03.07.03.15.06.22.04.07.04.16.07.23.07.18.14.37.22.55.14.29.3.58.48.86.18.28.37.54.57.8.13.18.27.35.42.51.12.14.24.28.37.4.19.19.37.39.58.56.1.07.17.17.27.24.15.11.28.23.42.35.06.05.12.09.18.13.23.15.44.31.68.44.17.1.33.2.5.29.27.14.55.27.83.38.16.07.32.14.48.19.12.04.24.08.37.11.13.03.26.07.38.11.09.03.2,0,.29.04.09.04.2,0,.28.06.17.01.33.02.5.03.11,0,.22,0,.34,0,.17,0,.34.01.52-.02.13-.03.27-.05.4-.07.15-.02.28-.06.42-.1.27-.08.54-.19.8-.31.11-.05.2-.13.31-.18.2-.11.39-.24.55-.4.08-.07.2-.1.23-.22.14-.05.17-.22.29-.29,0-.07.08-.08.11-.13.07-.09.13-.19.19-.29.07-.11.13-.21.19-.32.03-.05.07-.1.09-.15.05-.15.12-.29.17-.44.03-.08.06-.17.09-.25.02-.06.02-.13.03-.19.01-.06.01-.13.03-.19.03-.08.03-.16.03-.24,0-.13,0-.27,0-.4,0-.03,0-.06,0-.09-.04-.11-.06-.23-.08-.35-.03-.15-.08-.29-.14-.42-.09-.18-.17-.36-.26-.53-.14-.26-.28-.52-.42-.78-.11-.22-.26-.41-.37-.63-.04-.07-.09-.16-.2-.21.07.12.04.24.05.35-.08.12.01.24,0,.36,0,.01.01.03.02.04.02.04.05.09.07.13.2.36.35.74.51,1.11.06.14.13.28.18.42.03.07.06.14.04.22,0,0,0,.02-.01.03h-.11c-.14-.27-.29-.54-.42-.81-.13-.27-.28-.54-.41-.82-.05.12.04.23.02.34.05.07.05.16.07.24.02.09.03.18.03.28,0,.02,0,.04,0,.05.08.11-.01.25.06.36,0,0,0,.03-.01.04,0,.02-.02.05-.02.05.06.05.02.12.03.18.01.08-.03.17.03.24,0,.01,0,.05,0,.06-.04.04-.02.08-.03.12-.02.07.03.12.03.18,0,.3,0,.61,0,.91,0,.03-.03.06-.04.09-.05-.02-.08-.04-.1-.05-.02-.09-.03-.16-.04-.24-.01-.11,0-.22-.03-.34-.03-.12,0-.26-.03-.39-.03-.11,0-.24-.03-.35-.02-.07-.02-.16,0-.24.02-.07-.07-.13-.01-.2-.04-.07-.02-.15-.02-.22,0-.04,0-.07,0-.11-.02-.07-.05-.14-.05-.22,0-.11-.02-.22-.05-.36Zm-24.41,22.91s.01.02.02.03c.08,0,.18.03.25,0,.08-.04.18.01.25-.06.25-.06.49-.15.69-.26.1-.06.21-.11.32-.16.01,0,.02-.02.03-.03.18-.13.37-.24.55-.38.14-.11.3-.21.43-.34.08-.08.16-.16.24-.24.18-.16.34-.34.47-.54.15-.21.27-.44.4-.66.05-.08.08-.18.12-.27.09-.19.16-.39.23-.59.05-.15.1-.3.14-.45.06-.22.12-.44.17-.66.04-.17.07-.33.11-.5.04-.19.07-.37.12-.56.03-.13.08-.26.07-.4.07-.05,0-.15.06-.2-.01-.07.02-.14.03-.21.01-.07,0-.15.04-.21.03-.07.01-.13.03-.19.07-.19.09-.4.15-.59.07-.24.14-.47.25-.7.11-.24.24-.46.4-.67.1-.14.19-.28.31-.4.07-.07.14-.13.2-.2.16-.17.41-.34.66-.44.21-.09.41-.18.64-.18.02,0,.04-.03.07-.05-.04-.05-.09-.1-.13-.15-.14-.23-.33-.43-.49-.64-.08-.12-.18-.23-.27-.33-.15-.17-.28-.35-.43-.53-.15-.18-.28-.36-.42-.55-.12-.16-.23-.33-.34-.5-.09.03-.17.1-.25.16-.21.14-.41.29-.59.47-.16.16-.33.3-.45.48-.06.09-.15.16-.21.25-.16.22-.34.58-.49.93-.05.11-.09.22-.12.33-.03.11-.07.22-.1.33-.04.11-.06.23-.08.35-.05.2-.06.4-.1.6-.02.11-.02.22-.03.32-.02.27,0,.55-.04.82-.02.09.03.17.03.26,0,.23.01.46,0,.69-.01.23.04.45.04.67,0,.23,0,.47,0,.7,0,.23.02.46-.03.69-.03.14,0,.28-.03.42-.02.16-.03.31-.07.47-.01.06,0,.12-.03.18-.03.05-.02.12-.04.18-.01.06-.01.12-.03.18-.11.3-.19.6-.33.89-.08.15-.15.3-.24.45-.17.31-.39.58-.63.84-.09.1-.19.19-.3.27-.13.09-.24.21-.37.3-.21.14-.44.26-.64.42-.04.03-.08.06-.12.09-.04.03-.08.07-.12.1Zm12.99-6.32s-.02-.03-.04-.03c-.08,0-.15-.04-.23-.07-.25-.09-.51-.16-.74-.29-.17-.01-.32-.12-.47-.19-.28-.13-.55-.26-.82-.42-.28-.16-.55-.35-.81-.54-.19-.13-.38-.24-.56-.39-.05-.04-.12-.05-.18,0-.19.14-.39.27-.56.43-.1.09-.18.18-.26.29-.18.23-.34.47-.47.73-.09.18-.18.36-.26.55-.06.14-.1.28-.16.41-.07.16-.13.33-.17.51-.04.18-.1.36-.14.53-.05.19-.1.37-.15.56-.04.15-.09.3-.12.45-.03.13-.07.26-.1.39-.06.25-.14.5-.21.75-.01.05,0,.09-.02.14.11-.01.2-.04.29-.04.21,0,.43-.02.64.03.16.03.33,0,.5.03.13.03.27,0,.4,0,.13,0,.26.02.39.03.05,0,.1-.03.15-.03.16,0,.31,0,.47-.03.13-.02.25-.06.38-.09.18-.04.33-.12.49-.2.22-.12.42-.27.6-.44.12-.12.24-.24.35-.38.12-.14.23-.29.33-.44.11-.17.22-.33.33-.5.08-.13.15-.26.23-.38.09-.13.17-.27.25-.41.1-.18.23-.34.33-.52.09-.16.22-.29.33-.44Zm3.65.98c-.06,0-.13.02-.17,0-.06-.03-.11-.02-.16-.03-.05,0-.11-.02-.16-.03-.09-.01-.18,0-.26-.04-.18-.07-.37-.09-.54-.15-.06-.02-.15-.03-.22.05-.03.03-.08.06-.12.09-.07.08-.14.16-.22.25-.11.13-.23.25-.32.39-.1.17-.23.32-.33.48-.14.23-.29.44-.44.66-.12.17-.24.35-.36.52-.18.24-.37.48-.55.71-.05.06-.11.11-.17.17-.06.06-.1.13-.16.19-.1.1-.21.19-.31.28-.09.08-.18.16-.27.24-.07.06-.15.11-.22.16-.02.01-.04.03-.09.05.06.02.1.04.14.05.28.09.56.19.85.22.07.06.16,0,.22.04.08.04.15.03.23.02.16,0,.32.02.48-.03.09-.03.2,0,.29-.04.08-.03.17-.03.25-.08.07-.05.16-.07.24-.1.3-.14.57-.33.8-.57.07-.07.13-.16.2-.23.1-.1.17-.23.24-.35.09-.16.18-.33.24-.51.06-.19.14-.37.18-.56.03-.13.07-.27.11-.4.04-.12.07-.24.11-.35.04-.12.09-.24.13-.36.03-.11.08-.23.14-.32.07-.11.1-.25.21-.35.01,0,0-.04,0-.08Zm2.83-21.88s.05-.04.07-.05c.09-.05.13-.12.13-.22,0-.1-.06-.2-.16-.27-.06-.04-.12-.09-.19-.11-.07-.03-.31.02-.39.05-.22.09-.36.25-.47.45-.04.08-.08.17-.1.26-.02.09-.06.18-.06.28,0,.1-.02.19-.03.29-.01.07.03.13.03.19,0,.12,0,.25.03.37.03.1.03.21.07.31.04.12.07.24.15.35.04.06.12.06.15.13.07-.03.14.08.22,0,.02-.02.06,0,.09,0,.09,0,.17,0,.26,0,.03,0,.07,0,.1-.02.16-.09.24-.26.17-.45-.06-.16-.04-.32-.05-.47,0-.01,0-.03.01-.04.07-.16.1-.32.08-.49,0-.05,0-.11,0-.16.01-.14-.03-.26-.11-.39Zm-16.03,12.2c.19-.09.35-.19.5-.27-.12-.19-.1-.41-.19-.61-.11.28-.18.57-.31.88Z"/>
      <path class="cls-6" d="m230.74,158.62c.04.05,0,.09-.02.13-.05.14-.08.28-.15.42-.04.08-.09.12-.17.12-.08,0-.15-.03-.17-.12,0-.01-.02-.02-.02-.03.09-.27.34-.37.53-.52Z"/>
    </g>
    <g>
      <path class="cls-2" d="m185.76,40.83v2.56-5.13,2.56Z"/>
      <path class="cls-2" d="m178.65,40.83v2.56-5.13,2.56Z"/>
      <polyline class="cls-1" points="182.57 28.35 179.06 28.35 179.06 30.22 173.6 30.22 173.6 32.13 169.09 32.13 169.09 35.74 166.22 35.74 166.22 39.33 163.83 39.33 163.83 44.15 163.83 48.45"/>
      <polyline class="cls-1" points="182.57 28.35 186.07 28.35 186.07 30.22 191.53 30.22 191.53 32.13 196.04 32.13 196.04 35.74 198.91 35.74 198.91 39.33 201.3 39.33 201.3 44.15 201.3 48.45"/>
      <polyline class="cls-1" points="182.57 63.5 186.07 63.5 186.07 61.63 191.53 61.63 191.53 59.71 196.04 59.71 196.04 56.1 198.91 56.1 198.91 52.51 201.3 52.51 201.3 47.69 201.3 43.39"/>
      <g>
        <polyline class="cls-1" points="181.25 55.06 184.98 55.06 189.48 55.06 189.48 51.45 192.35 51.45 192.35 47.86 194.74 47.86"/>
        <polyline class="cls-1" points="184.98 55.06 180.25 55.06 175.74 55.06 175.74 51.45 172.87 51.45 172.87 47.86 170.48 47.86"/>
      </g>
      <polyline class="cls-1" points="182.57 63.5 179.06 63.5 179.06 61.63 173.6 61.63 173.6 59.71 169.09 59.71 169.09 56.1 166.22 56.1 166.22 52.51 163.83 52.51 163.83 47.69 163.83 43.39"/>
    </g>
  </g>
</svg>